<?xml version="1.0" encoding="iso-8859-1"?>
<!-- Generator: Adobe Illustrator 19.0.0, SVG Export Plug-In . SVG Version: 6.00 Build 0)  -->
<svg version="1.1" id="Capa_1" xmlns="http://www.w3.org/2000/svg" xmlns:xlink="http://www.w3.org/1999/xlink" x="0px" y="0px"
	 viewBox="0 0 511.653 511.653" style="enable-background:new 0 0 511.653 511.653;" xml:space="preserve">
<path style="fill:#FFD83B;" d="M79.392,322.162c0,0,16.784,1.92,48.448-12.96c31.664-14.864,63.808-4.8,63.808-4.8
	s40.304,19.184,54.208,22.544s44.128,3.36,74.352,1.92c0,0,40.304-7.68,48.928,16.784c0,0,11.04-2.4,29.264-12
	c0,0,87.792-44.496,108.896-26.56c0,0,14.384,13.136-9.12,28.96c0,0-95.952,62.368-154,88.272c0,0-20.144,7.68-60.928,39.824
	c0,0-14.864,6.72-33.584-4.8c0,0-102.176-53.248-151.6-32.144L79.392,322.162z"/>
<path style="fill:#F3C432;" d="M372.4,354.546c0,29.104-65.904,32.672-65.904,32.672c-9.888,5.216-24.16,6.32-24.16,6.32
	c-10.976-3.296-63.696-4.944-63.696-4.944c-30.208,3.296-45.584-7.68-45.584-7.68s11.536,13.184,40.64,12.624
	c0,0,47.776-2.192,59.04,8.784c0,0,19.408,4.944,36.48-8.24c0,0,9.92-6.048,21.456-6.048c0,0,35.152-3.296,41.728-23.056V354.546z"
	/>
<g>
	<path style="fill:#FFFFFF;" d="M342.784,335.506l-11.456,1.392c-2.672,0.32-4.576,2.752-4.256,5.44l3.472,28.416
		c0.32,2.672,2.752,4.576,5.44,4.256l11.456-1.392c10.528-1.28,18.016-10.848,16.72-21.376
		C362.864,341.714,353.296,334.226,342.784,335.506z"/>
	<path style="fill:#FFFFFF;" d="M510.848,321.986c-33.792,2.16-31.856,25.2-31.856,25.2l0.48,0.832
		c11.584-7.28,18.736-11.936,18.736-11.936C505.76,330.978,509.392,326.178,510.848,321.986z"/>
</g>
<polygon style="fill:#DAE5EF;" points="105.072,458.098 63.744,466.114 39.616,327.538 79.52,319.73 "/>
<polygon style="fill:#5B5F63;" points="0,479.938 64.576,469.282 38.4,319.73 0,326.978 "/>
<path style="fill:#4CC6E5;" d="M411.168,198.434c0,46.4-37.6,84-84.16,84c-46.4,0-84.16-37.6-84.16-84
	c0-46.56,84.16-166.72,84.16-166.72S411.168,151.858,411.168,198.434z"/>
<g>
</g>
<g>
</g>
<g>
</g>
<g>
</g>
<g>
</g>
<g>
</g>
<g>
</g>
<g>
</g>
<g>
</g>
<g>
</g>
<g>
</g>
<g>
</g>
<g>
</g>
<g>
</g>
<g>
</g>
</svg>
