<?xml version="1.0"?>
<svg xmlns="http://www.w3.org/2000/svg" xmlns:xlink="http://www.w3.org/1999/xlink" version="1.1" id="Capa_1" x="0px" y="0px" viewBox="0 0 512 512" style="enable-background:new 0 0 512 512;" xml:space="preserve" width="512px" height="512px" class=""><g><g>
	<path style="fill:#8EBFA1" d="M497,0c-0.007,0-0.013,0.001-0.02,0.001H111.399c-8.284,0-15,6.716-15,15s6.716,15,15,15H192.8   v81.401c0,8.284,6.716,15,15,15s15-6.716,15-15V30.001h162.8v81.401c0,8.284,6.716,15,15,15s15-6.716,15-15V30.001H482v162.801   h-81.399c-8.284,0-15,6.716-15,15s6.716,15,15,15H482V482h-81.399c-8.284,0-15,6.716-15,15s6.716,15,15,15H497   c8.284,0,15-6.716,15-15c0,0,0-0.001,0-0.002v-0.001V15C512,6.716,505.284,0,497,0z" data-original="#12BC66" class="active-path" data-old_color="#8FC0A2"/>
	<path style="fill:#8EBFA1" d="M304.2,482H126.399V319.201H289.2V385.6h-81.399c-8.284,0-15,6.716-15,15s6.716,15,15,15h192.8   c8.284,0,15-6.716,15-15v-96.399c0-8.283-6.716-15-15-15s-15,6.717-15,15V385.6h-66.4v-81.401c0-8.284-6.716-15-15-15   c-0.016,0-0.032,0.002-0.049,0.002H111.399c-8.284,0-15,6.717-15,15V482H30V222.804h274.2c8.284,0,15-6.716,15-15v-96.401   c0-8.284-6.716-15-15-15s-15,6.716-15,15v81.401H30V15c0-8.284-6.716-15-15-15S0,6.716,0,15v481.997v0.001C0,496.999,0,497,0,497   c0,8.284,6.716,15,15,15h289.2c8.284,0,15-6.716,15-15S312.484,482,304.2,482z" data-original="#12BC66" class="active-path" data-old_color="#8FC0A2"/>
</g><g>
	<path style="fill:#D4E8E2" d="M497,0c-0.007,0-0.013,0.001-0.02,0.001H256v30h129.601v81.401c0,8.284,6.716,15,15,15   s15-6.716,15-15V30.001H482v162.801h-81.399c-8.284,0-15,6.716-15,15s6.716,15,15,15H482V482h-81.399c-8.284,0-15,6.716-15,15   s6.716,15,15,15H497c8.284,0,15-6.716,15-15c0,0,0-0.001,0-0.002v-0.001V15C512,6.716,505.284,0,497,0z" data-original="#0B8C4B" class="" data-old_color="#D5E8E2"/>
	<path style="fill:#D4E8E2" d="M304.2,222.804c8.284,0,15-6.716,15-15v-96.401c0-8.284-6.716-15-15-15s-15,6.716-15,15v81.401H256   v30H304.2z" data-original="#0B8C4B" class="" data-old_color="#D5E8E2"/>
	<path style="fill:#D4E8E2" d="M304.2,512c8.284,0,15-6.716,15-15s-6.716-15-15-15H256v30H304.2z" data-original="#0B8C4B" class="" data-old_color="#D5E8E2"/>
	<path style="fill:#D4E8E2" d="M289.2,319.201V385.6H256v30h144.601c8.284,0,15-6.716,15-15v-96.399c0-8.283-6.716-15-15-15   s-15,6.717-15,15V385.6h-66.4v-81.401c0-8.284-6.716-15-15-15c-0.016,0-0.032,0.002-0.049,0.002H256v30H289.2z" data-original="#0B8C4B" class="" data-old_color="#D5E8E2"/>
</g></g> </svg>
