<?xml version="1.0" encoding="iso-8859-1"?>
<!-- Generator: Adobe Illustrator 19.0.0, SVG Export Plug-In . SVG Version: 6.00 Build 0)  -->
<svg version="1.1" id="Capa_1" xmlns="http://www.w3.org/2000/svg" xmlns:xlink="http://www.w3.org/1999/xlink" x="0px" y="0px"
	 viewBox="0 0 512 512" style="enable-background:new 0 0 512 512;" xml:space="preserve">
<circle style="fill:#4786C6;" cx="256" cy="256" r="256"/>
<polygon style="fill:#F0B97C;" points="240.408,96.892 242.156,128.096 270.072,128.096 267.608,86.936 "/>
<path style="fill:#E8E7E8;" d="M264.836,116.836c0.472,2.688-2.468,2.024-6.476,2.476c0.908,0.804,0.924,2.64-0.608,3.108
	c-2.42,0.736-16.132,1.424-14-4.228c0.228-0.6,0.62-1.032,1.108-1.356h-7.62v57.036h35.516v-57.036H264.836z"/>
<g>
	<path style="fill:#4D535F;" d="M230.968,443.096c0,0-12.896,17.196-24.4,22.308c0,0-5.344,6.972,9.876,6.972
		c0,0,11.62-0.58,16.732-3.136l6.624-5.808l3.952,1.628l11.152-2.44v-6.392c0,0,1.976-8.132-1.512-13.128h-22.424V443.096z"/>
	<path style="fill:#4D535F;" d="M262.452,448.788c0,0-2.092,7.088,1.044,8.948l-0.864,5.576l5.976,3.836v-1.976l1.628,1.976
		c-0.572,8.564,12.736,12.716,21.4,9.48c1.536-0.576,2.604-1.988,2.788-3.62l0,0c0.436-3.936-0.532-7.9-2.74-11.188l-0.3-0.448
		c-1.196-1.784-2.552-3.448-4.048-4.984c-1.372-1.404-3.112-3.92-3.04-7.6H262.452z"/>
</g>
<path style="fill:#5F87C4;" d="M248.788,129.04c-7.704,12.108-5.976,18.264-4.308,49.508l9.164-1.852l3.616-32.28
	c-0.888-10.412-1.864-9.152-4.052-19.16l-4.556,1.408L248.788,129.04z"/>
<path style="fill:#70B1E1;" d="M247.12,120.704c0,0,4.12,1.296,9.168-0.512l3.612,2.224l-5.972,6.124c0,0-3.056-1.676-5.14,0.5
	l-4.308-6.112L247.12,120.704z"/>
<g>
	<path style="fill:#FDFEFF;" d="M241.18,110.648c0,0-6.108,8.824,2.004,19.088c5.368-7.592,7.028-7.556,9.264-8.26v-1.896
		C252.444,119.584,243.388,114.196,241.18,110.648z"/>
	<path style="fill:#FDFEFF;" d="M268.792,106.672c0,0,9.276,0.844-6.844,21.868c-2.532-3.004-5.804-7.156-9.504-7.06v-1.896
		l2.256-0.588C254.7,118.996,266.044,111.544,268.792,106.672z"/>
</g>
<path style="fill:#F7CFA3;" d="M242.316,104.616c3.36,4.04,10.4,7.088,16.076,4.272c2.36-1.172,5.024-3.064,6.812-6.06l3.708-5.956
	v-5.368c0,0,3.124,0.78,4.248-3.124c0,0,1.868-6.248,0.732-7.516c0,0-2.856-3.808-3.82,2.928V69.64
	c-0.42-1.696-2.044-9.664-3.792-9.664c-0.684,0-11.224-1.756-12.104-1.756s-10.64,2.048-10.64,2.048l-6.296,8.464
	c-1.328,11.568-1.124,8.76-1.124,13.78c0,0-5.096-4.792-1.3,6.192c0,0,0.644,4.324,2.628,4.384
	C238.052,98.996,239.748,101.528,242.316,104.616z"/>
<g>
	<path style="fill:#656D7A;" d="M234.652,79.496c-2.148-5.272-1.072-13.568-1.072-13.568c3.808-10.64,16.512-11.908,16.512-11.908
		c17-2.732,21.356,11.324,21.356,11.324c2.824,2.536,1.312,8.1,1.312,8.1v6.148c-2.6,0.196-2.684,4.196-2.684,4.196
		c-0.872-0.38-1.224-2.376-1.364-4.08c-0.112-1.372-0.732-2.644-1.704-3.62c-2.584-2.6-1.508-7.624-1.508-7.624
		c1.224-2.12-2.384-3.516-4.58-2.724c-5.036,1.812-9.92,1.44-12.744,0.948c-3.592-0.624-3.808,1.876-6.864,3.024
		c-3.2,1.204-0.76,4.192-3.004,6.384c-1.52,1.488-1.064,5.376-1.064,7.688h-0.724c0,0-0.424-1.732-1.408-2.024L234.652,79.496z"/>
	<path style="fill:#656D7A;" d="M225.98,447.372l-2.552-20.404v-29.9c0,0,0.992-62.488-4.536-83.036l-3.26-47.184l3.544-40.808
		c13.036,0,3.668-0.172,47.612,0.992l21.54-0.992l2.832,45.344l-1.56,46.904l-0.992,36.132l-0.708,71.84
		c0,0-0.756,7.052-0.84,12.468c-0.064,4.18-1.544,8.212-4.296,11.356l-0.104,0.12c0,0-13.724-3.64-20.74,1.188
		c0,0-0.128-8.4-1.688-13.916c-1.908-6.744-2.48-13.78-2.18-20.784c0.34-7.88,1.304-17.316,3.716-25.436l-3.764-61.356
		l-4.604-44.544c0,0-3.944-8.732-3.28,5.156v66.74l2.124,17.148c0.652,5.256,0.652,10.56-0.032,15.812
		c-0.732,5.656-1.144,14.3,1.188,22.96c0,0,3.592,3.676,1.796,12.364c-0.768,3.708-0.78,7.512-0.336,11.268
		c0.26,2.204,0.28,5.044-0.34,8.456C254.52,445.264,239.16,443.548,225.98,447.372z"/>
</g>
<path style="fill:#353944;" d="M289.208,240.112l-0.88-14.076l-21.54,0.992c-43.944-1.164-34.584-0.992-47.612-0.992l-1.22,14.076
	H289.208z"/>
<polygon style="fill:#FDFEFF;" points="288.8,233.54 281.732,188.628 264.568,193.56 234.004,188.628 225.74,188.628 
	218.528,233.54 "/>
<path style="fill:#4D535F;" d="M306.028,129.036c-0.608,14.496,0.016,47.916-15.924,57.284l4.092,31.592l0.112,0.96v0.112
	l0.148,0.92l0.664,5.124l0.112,0.664l0.036,0.368l0.112,0.96l4.792,36.936c0.26,1.844-1.032,3.54-2.876,3.796l-26.688,3.724
	c-13.012,2.652-15.924-11.02-15.924-11.02c-5.936-13.416-8.22-49.356-8.22-49.356l-12.792,55.18
	c-2.028,8.996-10.356,5.308-10.356,5.308l-12.348-2.616c-1.808-0.368-2.984-2.1-2.652-3.908l6.78-38.04l0.26-1.328l0.112-0.664
	l1.108-6.12v-0.036l0.184-0.96l2.616-14.632l-15.556-2.176c-9.252,0.628-6.82-22.56-6.82-22.56l3.98-17.068
	c0.812-3.428,1.18-6.968,0.956-10.468c-0.344-6.084,1.6-8.668,2.028-14.856c0.404-6.268,2.948-9.068,4.532-10.172
	c0.736-0.552,1.252-0.736,1.252-0.736l21.268-6.228c2.324-0.812,4.24-1.992,5.712-3.172c2.432-1.916,3.688-3.76,3.688-3.76
	c0,20.3,3.78,36.492,8,53.34c2.088-0.084,1.712-0.068,2.984-0.112c-1.492-4.472,9.032-36.228,10.544-40.696
	c7.852-11.132,8.92-15.26,8.736-16.844c1.364,1.4,3.832,2.84,6.192,4.276c12.704,7.408,13.528,4.676,21.048,7.3
	C306.988,122.548,306.028,129.036,306.028,129.036z"/>
<path style="fill:#353944;" d="M295.376,227.016h-19.388c-1.068,0-1.952-0.884-1.952-1.952l0.848-6.6l19.424,0.516l0.148,0.92
	l0.664,5.124l0.112,0.664l0.036,0.368L295.376,227.016z"/>
<path style="fill:#656D7A;" d="M295.228,225.688H276.8c-1.068,0-1.916-0.848-1.916-1.916v-5.86H294.2l0.112,0.96v0.112l0.148,0.92
	l0.664,5.124L295.228,225.688z"/>
<path style="fill:#353944;" d="M233.156,225.06c0,1.068-0.884,1.952-1.952,1.952h-16.108l0.26-1.328l0.112-0.664l1.108-6.12
	l15.74-0.444L233.156,225.06z"/>
<g>
	<path style="fill:#656D7A;" d="M232.308,217.908v5.86c0,1.068-0.884,1.916-1.952,1.916h-15.004l0.112-0.664l1.108-6.12v-0.036
		l0.184-0.96h15.552V217.908z"/>
	<path style="fill:#656D7A;" d="M250.796,170.46l-4.38,0.644c-10.516-11.644-17.64-45.1-17.64-45.1l5.344-2.588l-4.052-1.296
		c2.916-1.584,5.108-4.024,6.66-6.28c0.004,0,0.004-0.004,0.004-0.004c2.44-1.924,3.676-3.784,3.676-3.784
		c0,27,8.004,53.344,8.004,53.344l0.928-0.032c0.196,0.704,0.372,1.34,0.532,1.908v0.004c0.256,0.908,0.464,1.636,0.62,2.168
		C250.688,170.108,250.796,170.46,250.796,170.46z"/>
	<path style="fill:#656D7A;" d="M273.596,120.32h4.14c0,0-19.404,28.812-22.228,48.452l-5.016,0.676l-1.064,0.144
		c0.176-0.96,0.624-3.248,0.828-4.256l1.124-0.04c-1.52-4.932,10.56-40.688,10.56-40.688c7.868-11.136,8.928-15.244,8.736-16.848
		c1.376,1.42,3.82,2.844,6.2,4.276l2.152,6.044L273.596,120.32z"/>
</g>
<path style="fill:#F7CFA3;" d="M223.332,171.108c0,0,6.096-2.38,9.34-1.508l2,7.42l-5.9,3.388l-5.832,1.216l-6.228-2.272
	C216.716,175.356,216.088,172.4,223.332,171.108z"/>
<path style="fill:#FDFEFF;" d="M232.352,166c0,0-6.248,4.208-1.504,15.408l7.636,1.192l1.792-16.6H232.352z"/>
<path style="fill:#F7CFA3;" d="M254.212,197.908c0,0,9.924,0.732,15.7-4.792c0,0,5.448-0.268,6.812-3.968l-6.096-8.564H260.44
	l-6.528,6.06L254.212,197.908z"/>
<path style="fill:#FDFEFF;" d="M247.164,202.672H255c0,0,1.304,0.116,1.476-1.216v-15.964l-7.46-1.936L247.164,202.672z"/>
<g>
	<path style="fill:#656D7A;" d="M306.044,129.04c-0.616,14.632,0.02,47.904-15.944,57.272c-7.432,7.392-24.852,4.532-24.852,4.532
		c-21.896-6.252-14.776-4.864-33.476-6.74c0.348-18.688,3.608-18.736,3.644-18.736c8.24,0.112,22.66-0.824,30.56-1.472
		c21.26-2.216,17.608-13.56,17.608-13.56c0.3-17.004,9.884-27.176,14.332-30.992C306.968,122.564,306.044,129.04,306.044,129.04z"/>
	<path style="fill:#656D7A;" d="M255.24,183.6c-2.34,4.004-4.668,14.66-5.124,25.2l-28.752-5.408l-17.552-2.284
		c-9.236,0.636-6.832-22.56-6.832-22.56l4-17.06c0.804-3.436,1.16-6.968,0.96-10.492c-0.356-6.268,1.632-8.804,2.024-14.832
		c0.404-6.268,2.956-9.064,4.532-10.204c1.296,8.456,4.304,23.62,9.576,27.216c0,0,4.588,13.408,1.292,19.876
		c0,0,4.58,5.492,11.936,8.548C237.368,184.148,239.732,183.492,255.24,183.6z"/>
</g>
<g>
	<path style="fill:#4D535F;" d="M204.52,139.136c3.096-0.296,7.284,2.548,8.044,6.22
		C209.976,142.588,209.716,141.712,204.52,139.136z"/>
	<path style="fill:#4D535F;" d="M206.532,145.816c3.096,0.048,8.076,2.668,10.184,6.132
		C212.556,149.448,215.816,150.768,206.532,145.816z"/>
	<path style="fill:#4D535F;" d="M203.028,154.832c4-1.556,13.164-1.392,16.412,5.384C215.488,156.12,211.868,154.5,203.028,154.832z
		"/>
	<path style="fill:#4D535F;" d="M199.136,187.076c3.492-3.596,7.744-7.76,10.56-11.804l-0.044,0.088
		c0.748-1.792,2.94-3.34,7.06-2.88C208,173.292,212.912,177.996,199.136,187.076z"/>
	<path style="fill:#4D535F;" d="M201.148,194.276c6.668,1.148,13.44-14.832,24.068-15.052
		C214.936,181.26,208.068,196.764,201.148,194.276z"/>
	<path style="fill:#4D535F;" d="M271.448,163.02c-2.352,1.416,1.676,5.644,2.788,8.088
		C269.676,168.284,268.908,162.856,271.448,163.02z"/>
	<path style="fill:#4D535F;" d="M259.904,164.348c-0.896,4.388,6.62,8.52,10.172,11.168
		C261.324,173,258.428,166.632,259.904,164.348z"/>
	<path style="fill:#4D535F;" d="M283.316,158.684c2.196,0.804,4.824,4.416,5.044,7.316
		C288.084,165.68,283.508,158.972,283.316,158.684z"/>
	<path style="fill:#4D535F;" d="M301.172,133.464c-7.12,0.536-13.392,1.336-16.176,6.568
		C286.276,133.928,295.552,132.084,301.172,133.464z"/>
	<path style="fill:#4D535F;" d="M305.308,146.6c-11.588-4.596-16.468-2.352-20.312,1.292
		C289.648,140.396,300.296,142.932,305.308,146.6z"/>
	<path style="fill:#4D535F;" d="M303.996,136.716c-0.912,1.604-4.012,3.044-5.796,3.472c-3.244,0.776-6.332,0.824-9.844-0.152
		C292.36,139.7,299.752,140.228,303.996,136.716z"/>
	<path style="fill:#4D535F;" d="M253.756,187.076c-0.1,0.276-0.2,0.572-0.304,0.884c-11.368-3.348-0.948-1.62-22.196-3.392
		c0.012-0.684,0.032-2.248,0.044-2.928v-0.04c0.352,0.148,0.708,0.288,1.076,0.424l-0.076,1.632
		c2.084,0.232,12.824,1.776,14.732,1.776C247.036,185.432,252.216,186.648,253.756,187.076z"/>
</g>
<path style="fill:#353944;" d="M148.688,438.388l0.744,25.82c0,0-0.828,10.096,5.212,12.084c0,0,9.932,1.82,12.58-3.476
	l0.496-11.256c0,0-0.744-17.38-2.896-20.936L148.688,438.388z"/>
<g>
	<path style="fill:#F7CFA3;" d="M149.764,462.8c0,0,8.028,5.876,17.464-0.664l-2.648-20.688h-14.4L149.764,462.8z"/>
	<path style="fill:#F7CFA3;" d="M152.576,472.316l3.768-3.428c1.268-1.156,3.152-1.32,4.604-0.408l4.784,3.008
		C165.736,471.488,158.124,475.96,152.576,472.316z"/>
	<path style="fill:#F7CFA3;" d="M77.02,443.6l-4.884,20.772v8.856c7.248,5.18,12.464-2.78,17.544-8.524v-12
		c0,0-0.188-2.048,0.908-3.28c2.208-2.488,1.444-4.468,1.16-12.444L77.02,443.6z"/>
</g>
<g>
	<path style="fill:#353944;" d="M72.136,463.132c0,0,5.048,7.612,18.208,0.58c-1.232,7.972-0.864,15.104-11.256,13.656
		c0,0-4.468,1.076-7.448-1.076C71.64,476.288,68.08,470.912,72.136,463.132z"/>
	<path style="fill:#353944;" d="M89.684,467.972h1.568l0.332-13.364l5.464-16.824l-3.144,1.348l-4.636,5.464
		C88.148,456.284,88.092,451.336,89.684,467.972z"/>
</g>
<rect x="121.04" y="116.84" style="fill:#F0B97C;" width="25.756" height="38.2"/>
<path style="fill:#F7CFA3;" d="M128.484,83.324c-14.64,13.532-12.36,34.848-0.588,43.376c0,0,2.36,4.044,11.792,1.852
	c0,0,5.644-1.18,10.108-9.18c6.228-11.16,4.62-14.948,2.36-34.112l-8-7.328l-6.568-0.928L128.484,83.324z"/>
<path style="fill:#FDFEFF;" d="M120.064,132.484c1.816,1.9,9.636,13.836,26.728-1.812c8.98,63.628,6.524,44.096,11.676,92.152
	l1.692,5.316c0,0-27.78,17.996-47.344,9.784l-6.28-2.9l1.088-41.788l4.108-50.608L120.064,132.484z"/>
<path style="fill:#656D7A;" d="M176.016,306.5c0,0-6.148,26.82-3.136,40.3c0.532,2.372,0.836,4.76,0.984,7.188
	c0.624,10.204,1.46,33.856-2.84,49.524l-5.988,39.66c0,0-10.476,7.484-16.216-1.744c0,0-2.792-7.752-0.184-20.8
	c1.072-5.36,1.2-10.868,0.072-16.22l-0.636-3.016l-1.248-32.928c0,0,0.432-4.76-1.084-10.824c-0.9-3.604-1.292-7.32-1.428-11.032
	l-0.736-20.176l-5.736-39.492c0,0-10.976,27.648-16.092,48.596c0,0-4.076,17.868-9.26,29.312c-1.02,2.252-1.792,4.596-2.288,7.016
	l-7.664,37.504l-2.684,12.884c-0.516,2.472-0.628,5.004-0.5,7.528c0.78,15.716-14.624,21.812-23.376,14.64L77.1,420.1l2.248-5.36
	l0.876-18.212l1.116-2.744c0,0,1.124-22.7,3.12-28.184c0,0,0.348-8.56,2.628-13.208c1.86-3.796,3.12-7.86,3.236-12.084
	c2.328-84.636,2.032-18.116,3.364-98.676c4.564-4.108,2.708-2.44,8.848-7.968c0,0,20.632,11.184,56.028-4.552
	c13.588,4.368,9.716,3.12,18.456,5.936l6.244,20.884C180.072,282.272,181.612,293.26,176.016,306.5z"/>
<path style="fill:#353944;" d="M72.12,270.536c0,0,9.136,8.384,17.752-0.968l-2.9-10.904l-8.02,2.804L72.12,270.536z"/>
<path style="fill:#F7CFA3;" d="M90.532,298.488c3.056,5.812,0.792,6.108,0.792,6.108c-6.316-0.948-12.12-4.864-14.44-8.212v-0.004
	c-4.104-5.764,0.568-16.94,0.448-35.232l10.988,0.94c0.16,2.68,0.52,9.892,2.236,11.852
	C96.916,281.22,95.344,291.004,90.532,298.488z"/>
<path style="fill:#353944;" d="M169.912,232.748c-27.432,18.228-60.832,16.468-72.096,7.324l-0.38-1.808l5.112-4.604
	c0,0,20.632,11.184,56.028-4.552L169.912,232.748z"/>
<path style="fill:#4D535F;" d="M97.9,141.34c-0.9,0.256-1.816,0.496-2.756,0.728c-2.124,0.52-3.972,1.796-5.172,3.624
	c-2.844,4.34-7.66,13.58-9.404,28.34l-2.416,37.56l-2.536,29.952c0,0,1.332,24.036-3.5,28.988c0,0,15.576-7.608,17.752-0.968
	c0,0-1.448-9.9,0.964-16.06c0,0,7.976,2.78,15.7,3.264c0,0,3.992,1.448,7.012-11.6l4.704-40.216l0.064-1.748l2.72-72.048
	C117.032,133.912,108.024,138.5,97.9,141.34z M96.576,222.464c0,0-3.328,21.38-4.532,15.824c5.284-32.748,2.144-13.924,5.556-35.632
	C100.292,206.656,98.064,217.432,96.576,222.464z"/>
<path style="fill:#656D7A;" d="M121.036,131.156l-2.72,72.048l-11.172-54.532l7.728-3.264l-5.728-1.816l6.38-9.228
	C119.06,132.516,121.036,131.156,121.036,131.156z"/>
<g>
	<path style="fill:#F7CFA3;" d="M72.136,473.324l3.768-3.428c1.268-1.156,3.152-1.32,4.604-0.408l4.784,3.008
		C85.296,472.496,77.68,476.968,72.136,473.324z"/>
	<path style="fill:#F7CFA3;" d="M183.176,269.592c-9.016,10.108-4.02,13.772-9.672,22.44c0,0,1.784,5.82,4.836-1.504
		c4.2-14.376,10.448-6.18,0.688,5.224c0,0-4.964,4.848-3.904,7.692c-1.064,8.092,6.964-1.732,13.524-8.412
		c5.516-4.38,4.396-11.4,4.396-27.58L183.176,269.592z"/>
</g>
<path style="fill:#4D535F;" d="M195.136,273.988c0,0-11.112-4.724-13.852-1.68c0,0,2.656-12.952-2.404-21.3l-8.34,3.932
	c0,0-7.3,4.012-9.472-3.604c-20.784-58.336-17.204-36.904-15.264-120.664c4,2.56,14.404,7.504,27.232,10.416
	c4.456,1.012,10.596,13.508,11.596,28.008l5.024,43.388L195.136,273.988z"/>
<path style="fill:#656D7A;" d="M159.4,148.044l-15.076,46.352l1.476-63.724c0,0,3.6,2.304,10.072,4.976l1.26,6.78l-4.044,0.988
	L159.4,148.044z"/>
<path style="fill:#353944;" d="M164.632,113.764c-5.8-13.26-2.876-15.524-8.816-27.78C145.068,68.472,131.42,75.84,131.42,75.84
	c-16.424,6.4-19.928,31.764-19.928,31.764c-5.676,12.56,0.724,18.84,0.724,18.84c1.26,4.544,0.984,8.736-1.448,12.44
	c11.168,10.488,13.536-13.904,10.272-20.648c0-10.552-1.92-27.004,11.828-35.132c9.908-5.856,17.368,7.576,16.98,18.92
	c-0.968,2.768-0.432,6.348,0.328,9.196c0.84,3.144-1.888,9.556-3.376,12.448c-7.244,14.04-6.264,21.332,6.604,22.704
	c-0.344-4.912,1.06-8.9,4.468-11.836C171.636,125.84,164.632,113.764,164.632,113.764z"/>
<g>
	<path style="fill:#F0B97C;" d="M89.384,283.068c1.072,3.516,1.788,11.384,1.148,15.084
		C89.612,294.44,88.936,286.896,89.384,283.068z"/>
	<path style="fill:#F0B97C;" d="M87.68,303.756c-2.292-3.892-2.908-8.272-2.54-12.808c0.14,5.244,0.864,8.904,4.244,13.16
		l-0.12,0.096L87.68,303.756z"/>
	<path style="fill:#F0B97C;" d="M82.78,301.272l-0.2,0.1c-0.492-0.308-0.952-0.62-1.388-0.94c-0.792-2.892-0.34-6.568,0.528-8.524
		C80.788,296.092,81.536,298.604,82.78,301.272z"/>
	<path style="fill:#F0B97C;" d="M78.264,297.64l-0.244,0.064c-0.436-0.436-0.792-0.816-1.14-1.32c0-2.028,0.264-3.824,1.24-5.776
		C77.652,293.912,77.22,293.416,78.264,297.64z"/>
</g>
<g>
	<path style="fill:#353944;" d="M171.788,140.76c-8.812,36.956-2.868,74.1,7.092,110.264
		C166.128,215.58,160.504,176.688,171.788,140.76z"/>
	<path style="fill:#353944;" d="M98.388,204.836c-0.348-1.532-0.788-2.18-0.788-2.18c-0.456,2.896-0.832,5.332-1.148,7.36
		c1.224-27.104,1.276-41.624,1.448-68.672c0,0,0.028,0.404,0.084,1.164c0.052,0.756,0.148,1.868,0.232,3.28
		C99.036,160.956,99.904,177.256,98.388,204.836z"/>
</g>
<path style="fill:#F0B97C;" d="M186.1,292.312c-1.972,3.644-6.92,9.908-10.972,11.132C178.796,301.512,181.744,297.54,186.1,292.312
	z"/>
<g>
	<polygon style="fill:#343943;" points="340.528,462.44 345.568,440.808 359.096,440.02 361.22,457.956 355.4,461.024 
		341.712,463.868 	"/>
	<polygon style="fill:#343943;" points="438.3,466.136 433.004,445.896 418.78,445.16 416.548,461.94 422.668,464.812 
		437.056,467.472 	"/>
</g>
<path style="fill:#896D61;" d="M337.996,449.984c0,0-3.756,12.944-15.34,14.46c0,0-4.156,0.48-4.472,4.872
	c-1.568,4.496,9.484,3.72,17.852,3.884l7.84-1.548c4.36-2.24,7.164-3.888,7.916-4.272c4.028-0.1,2.34,0.016,7.916-0.604l3.172-1.652
	c0,0,1.26-8.468-2.176-11.272c0,0,0.984,3.892-4.596,2.676c-1.392-0.304-2.74-0.804-3.988-1.5c-1.128-0.628-3.664-1.372-6.464,2.26
	c0,0,3.304-5.38,0.996-7.304C346.652,449.984,340.82,444.072,337.996,449.984z"/>
<path style="fill:#424854;" d="M318.256,468.712c0,0-1.46,0.84-0.716,2.876c0,0,2.704,3.76,11.36,3.056
	c13.068-1.064,12.308,1.232,22.264-6.608l1.992,1.364c0,0,7.684,0.788,9.952-2.544c0,0,1.636-1.52-0.384-2.988
	c0,0-2.148,3.436-10.12,2.44c0,0-2.492-0.252-6.136,2.992C340.356,472.732,319.42,473.808,318.256,468.712z"/>
<path style="fill:#896D61;" d="M440.964,454.48c0,0,3.948,12.108,16.124,13.528c0,0,4.368,0.448,4.704,4.56
	c0,0,1.048,2.676-4.6,3.388c-23.708,0.412-20.848-0.728-30.728-5.2c-4.236-0.092-2.46,0.016-8.324-0.564l-3.336-1.544
	c0,0-1.324-7.924,2.288-10.548c0,0-1.032,3.64,4.832,2.504c1.464-0.284,2.88-0.752,4.192-1.404c1.184-0.588,3.852-1.284,6.796,2.116
	c0,0-3.472-5.032-1.048-6.832C431.86,454.48,437.992,448.948,440.964,454.48z"/>
<path style="fill:#424854;" d="M461.712,472.004c0,0,1.536,0.784,0.756,2.692c0,0-2.84,3.52-11.94,2.86
	c-14.176-1.028-13.088,1.048-23.404-6.18l-2.096,1.276c0,0-8.08,0.736-10.46-2.38c0,0-1.72-1.424,0.4-2.796
	c0,0,2.26,3.212,10.64,2.28c0,0,2.62-0.236,6.448,2.8c0,0,4.408,2.204,14.056,2.644
	C446.112,475.196,460.688,475.996,461.712,472.004z"/>
<polygon style="fill:#F0B97C;" points="356.58,122.26 355.716,160.184 355.716,172.824 385.596,172.824 386.316,117.516 "/>
<path style="fill:#E8E7E8;" d="M334.116,245.948l30.72,4.472h25.48l16.748-0.512c0,0-2.356-26.596-1.78-30.028
	c0.572-3.432-1.808-44.064-1.58-44.908s5.408-20.688,5.408-20.688l-20.324-15.36l-6.24,8.312l-2.644,5.24l-12.012,0.888
	l-6.824-1.608l-2.556-5.784l-3.764-5.644l-3.824,3.656L339.72,158.98c-10.376,34.512-5.964,20.192-5.964,65.776
	C333.756,226.928,334.116,245.948,334.116,245.948z"/>
<path style="fill:#656C7A;" d="M349.112,91.888c0,0-1.064-11.084,8.172-11.44c0,0,5.044-14.068,32.752,0.356
	c0,0-1.848,0.144-1.848,1.208c0,0,3.06,1.4,4.764,3.6c0,0-0.972-0.208-1.548,0.472c4.852,9.256,0.484,20.328-1.068,25.276
	l0.132,1.22l-6.78,0.804c0,0-10.792-0.132-12.372,0c-1.58,0.132-17.752-0.328-17.752-0.328l-2.868-0.476
	C348.7,102.896,349.112,107.252,349.112,91.888z"/>
<polygon style="fill:#D64331;" points="367.208,165.444 359.316,220.76 366.444,238.692 374.836,222.02 374.284,165.652 
	373.788,159.728 368.124,162.14 "/>
<path style="fill:#F1592F;" d="M363.124,158.992l6.496-8.704l1.396-0.164l2.508,0.556l4.744,4.904c0,0-1.312,7.208-3.984,10.068
	c0,0-4.3,2.964-7.08-0.208C367.208,165.444,366.3,161.536,363.124,158.992z"/>
<g>
	<path style="fill:#FDFEFF;" d="M356.28,135.332c0,0,0.004,3.736,14.736,14.792c0,0-8.548,7.9-8.548,12.928
		C362.468,163.056,350.24,146.684,356.28,135.332z"/>
	<path style="fill:#FDFEFF;" d="M386.068,136.528c0,0-2.112,4.332-15.052,13.6c0,0,8.644,7.624,8.28,12.928
		C379.292,163.056,394.916,142.504,386.068,136.528z"/>
</g>
<path style="fill:#4D535F;" d="M338.216,247.22l64.744,2.828l12.428,26.396l-2.096,6.2l9.772,72.728l9.484,45.024l9.428,53.844
	c0,0-19.308,6.036-28.12,4.344c0,0-0.964-29.448-4.828-32.584c0,0-3.984-8.448-5.312-24.5l-8.12-26.196
	c-0.292-0.944-0.324-1.948-0.092-2.904l0,0c0.352-1.456,0.108-2.996-0.716-4.244c-0.932-1.412-1.948-3.476-1.54-5.336
	c0.264-1.216,0.232-2.476-0.38-3.56c-0.976-1.724-2.156-4.232-1.928-5.948c0.38-2.848-13.552-46.948-13.552-46.948
	s-0.98-8.528-8.528-7.48l-5.804,52.084c0,0-1.708,5.292-0.552,9.46c0.268,0.964,0.272,1.984-0.024,2.94l-0.684,2.212
	c-2.392,5.228,1.784,8.104,1.492,13.5c-0.476,8.812-1.624,32.448-0.376,35.228l0.908,41.668c-9.996,0.628-17.476-6.292-28.176-4.476
	v-67.976c0-2.724-0.284-5.428-0.872-8.088c-1.148-5.18-2.932-15.28-2.204-25.376l-1.964-68.508l-3.492-6.156L338.216,247.22z"/>
<path style="fill:#F7CFA3;" d="M356.948,125.276l7.008,9.476c1.052,1.42,2.5,2.512,4.184,3.048c1.648,0.524,3.808,0.82,5.988-0.004
	c1.324-0.5,2.428-1.452,3.3-2.564l8.216-10.46c0,0,1.656-2.808,3.136-9.132c0,0,1.076,2.608,2.984-1.604
	c0,0,3.428-5.244,2.196-11.416c0,0-2.764-3.408-4.036,5.08l-0.332,3.468l-1.092-0.428c0,0,1.188-7.552-0.332-11.684l-0.188-6.744
	c0,0-1.708-8.216-11.16-4.512c0,0-6.22,2.756-11.776-0.524c0,0-9.592-2.424-9.832,5.128c0,0,0.048,4.56-1.284,8.928l0.332,8.88
	l-0.856,1.424c0,0,0.568-10.068-4.036-10.64c0,0-1.852,0.38-0.428,7.22c0,0,0.136,4.068,2.66,7.36c0,0,1.676,2.468,2.184-0.524
	C353.784,115.064,354.844,122.428,356.948,125.276z"/>
<path style="fill:#896D61;" d="M404.708,252.276c0,0-15.572,0.94-32.888,0.504c-3.556-0.084-7.18-0.236-10.756-0.452
	c-9.732-0.62-19.128-1.828-25.772-4.012l2.92-5.956c0,0,8.96,2.416,22.852,3.592c3.324,0.304,6.928,0.504,10.756,0.604
	c9.312,0.236,19.948-0.252,31.16-2.148L404.708,252.276z"/>
<path style="fill:#F5EA07;" d="M371.82,246.552v6.224c-3.556-0.084-7.18-0.236-10.756-0.452v-6.376
	C364.388,246.252,367.996,246.452,371.82,246.552z"/>
<path style="fill:#4D535F;" d="M339.704,245.196c-0.924,1.024-1.76,2.348-2.516,3.908c-5.304,10.84-6.576,32.452-6.576,32.452
	L314.22,275.5c3.876-9.532,13.104-54.632,13.104-54.632c5.684-22.24-5.8-39.836-1.056-72.752c2.016-1.964,13.02-5.552,18.54-6.844
	c1.676-0.384,3.204-1.192,4.548-2.248c0.436-0.336,0.888-0.672,1.344-0.988c0.016,0,0.016-0.016,0.016-0.016
	c2.18-1.512,5.64-2.56,5.64-2.56C350.316,214.92,352.036,217.28,339.704,245.196z"/>
<path style="fill:#656D7A;" d="M322.2,268.548c0,0,3.236,1.356,6.988-0.428c0,0,0.632-7.232,9.028-14.228l-4.488-0.612
	c0,0-5.58-0.9-6.256-0.388c-0.676,0.512-6.256,9.736-6.256,9.736L322.2,268.548z"/>
<path style="fill:#4D535F;" d="M424.44,274.356l-11.948,5.436l-10.068-26.008c-0.252-0.468-0.504-0.972-0.756-1.512
	c-9.476-20.34-11.98-71.364-15.548-115.78c0,0,0.136,0,0.384,0.068c0.656,0.184,3.116-0.932,5.248,0.964
	c0.032,0.016,0.068,0.032,0.084,0.068c0.184,0.2,0.404,0.404,0.62,0.572l0.052,0.052c1.26,1.04,2.752,1.78,4.344,2.216
	c13.976,3.692,26.108,10.388,26.108,10.388C401.148,224.02,424.44,274.356,424.44,274.356z"/>
<path style="fill:#656D7A;" d="M404.708,253.344c0,0,0.024,14.532,16.64,14.472l1.716-6.256l-4.536-7.48l-9.012-1.3L404.708,253.344
	z"/>
<path style="fill:#F7CFA3;" d="M401.616,255.212l12.268-1.284l7.504,10.308l-7.2,10.256
	C414.192,274.496,406.252,257.136,401.616,255.212z"/>
<path style="fill:#FFFFFF;" d="M404.708,253.344l2.352-3.432l1.228-1.596l11.832,4.576l5.948,5.416l-0.92,2.512l-3.8,6.988
	C421.348,267.816,417.436,255.98,404.708,253.344z"/>
<path style="fill:#F7CFA3;" d="M322.2,263.152c0,0,2.44,9.124,5.844,10.6c0,0,3.996-12.476,7.94-17.456l-8.284-5.08L322.2,263.152z"
	/>
<path style="fill:#FFFFFF;" d="M322.2,268.548l-3.312-7.296l4.232-7.236l5.948-4.656l4.168-2.092l2.204,0.736l2.772,5.888
	C338.216,253.896,322.448,261.132,322.2,268.548z"/>
<path style="fill:#656D7A;" d="M339.704,245.196c-0.924,1.024-1.76,2.348-2.516,3.908l-0.872,0.284
	c6.612-9.916,8.908-35.772,8.908-35.772c1.576-13.64-7.904-45.388-7.904-45.388l11.36-5.168l-11.36-2.448
	c6.308-12.768,10.62-19.26,13.372-22.584c0.016,0,0.016-0.016,0.016-0.016c2.18-1.512,5.64-2.56,5.64-2.56
	C350.316,214.92,352.036,217.28,339.704,245.196z"/>
<g>
	<path style="fill:#4D535F;" d="M327.332,220.864l10.884,30.908c-15.028,1.24-18.592,14.564-18.592,14.564l-11.308-36.564
		c-5.888-11.308,2.324-41.056,2.324-41.056c9.648-40.612,15.632-40.604,15.632-40.604
		C321.564,180.78,332.936,198.836,327.332,220.864z"/>
	<path style="fill:#4D535F;" d="M422.96,150.812c0,0,4.632,2.916,9.88,22.728l12.024,41.324c0,0,4.404,8.636-6.436,27.264
		l-15.472,24.204c0,0,1.616-13.376-17.2-15.528l15.192-33.7l-7.144-12.528C414.192,186.928,417.536,167.492,422.96,150.812z"/>
</g>
<path style="fill:#656D7A;" d="M405.764,167.524c0,0-10.168,35.252-9.344,44.348c0,0,2.216,24.7,5.252,40.404
	c-9.476-20.34-11.98-71.364-15.548-115.78c0,0,0.136,0,0.384,0.068c0.656,0.184,3.116-0.932,5.248,0.964
	c0.032,0.016,0.068,0.032,0.084,0.068c0.2,0.184,0.42,0.368,0.62,0.572l0.052,0.052c3.34,3.256,7.988,9.632,13.256,22.08
	l-11.66,2.768L405.764,167.524z"/>
<g>
</g>
<g>
</g>
<g>
</g>
<g>
</g>
<g>
</g>
<g>
</g>
<g>
</g>
<g>
</g>
<g>
</g>
<g>
</g>
<g>
</g>
<g>
</g>
<g>
</g>
<g>
</g>
<g>
</g>
</svg>
