<?xml version="1.0" encoding="iso-8859-1"?>
<!-- Generator: Adobe Illustrator 19.0.0, SVG Export Plug-In . SVG Version: 6.00 Build 0)  -->
<svg version="1.1" id="Capa_1" xmlns="http://www.w3.org/2000/svg" xmlns:xlink="http://www.w3.org/1999/xlink" x="0px" y="0px"
	 viewBox="0 0 512 512" style="enable-background:new 0 0 512 512;" xml:space="preserve">
<path style="fill:#ABAAB0;" d="M0,206.137V105.513c0-13.678,11.128-24.806,24.807-24.806h462.385
	c13.679,0,24.807,11.128,24.807,24.806v100.623H0z"/>
<g>
	<path style="fill:#929296;" d="M408.783,110.2v-9.122c0-4.258-3.451-7.711-7.711-7.711c-4.259,0-7.711,3.452-7.711,7.711v9.122
		c-6.722,2.966-11.418,9.68-11.418,17.498c0,10.565,8.564,19.129,19.129,19.129s19.129-8.564,19.129-19.129
		C420.201,119.88,415.503,113.166,408.783,110.2z"/>
	<path style="fill:#929296;" d="M72.185,80.707H24.807C11.128,80.707,0,91.835,0,105.513v100.623h47.379V105.513
		C47.379,91.835,58.507,80.707,72.185,80.707z"/>
</g>
<path style="fill:#B7FF78;" d="M89.72,128c-4.687,0-8.499-3.812-8.499-8.499v-7.677c0-4.686,3.812-8.499,8.499-8.499h11.789
	c4.687,0,8.499,3.812,8.499,8.499v7.677c0,4.686-3.812,8.499-8.499,8.499H89.72z"/>
<path style="fill:#CFE5F6;" d="M447.659,187.631H312.116H200.912H65.369H0v218.856c0,13.678,11.128,24.806,24.807,24.806h462.385
	c13.679,0,24.807-11.128,24.807-24.806V187.631H447.659z"/>
<g>
	<path style="fill:#A5AEE5;" d="M252.916,377.126v-7.197c0-4.258-3.451-7.711-7.711-7.711h-3.598v-7.197
		c0-4.258-3.451-7.711-7.711-7.711s-7.711,3.452-7.711,7.711v7.197h-3.598c-4.259,0-7.711,3.452-7.711,7.711v7.197
		c0,4.258,3.451,7.711,7.711,7.711h3.598v26.731c0,4.258,3.451,7.711,7.711,7.711s7.711-3.452,7.711-7.711v-26.731h3.598
		C249.464,384.837,252.916,381.384,252.916,377.126z"/>
	<path style="fill:#A5AEE5;" d="M313.06,362.218h-3.598v-7.197c0-4.258-3.451-7.711-7.711-7.711c-4.259,0-7.711,3.452-7.711,7.711
		v7.197h-3.598c-4.259,0-7.711,3.452-7.711,7.711v7.197c0,4.258,3.451,7.711,7.711,7.711h3.598v26.731
		c0,4.258,3.451,7.711,7.711,7.711c4.259,0,7.711-3.452,7.711-7.711v-26.731h3.598c4.259,0,7.711-3.452,7.711-7.711v-7.197
		C320.771,365.671,317.32,362.218,313.06,362.218z"/>
	<path style="fill:#A5AEE5;" d="M279.133,385.865h-3.598v-30.843c0-4.258-3.451-7.711-7.711-7.711c-4.259,0-7.711,3.452-7.711,7.711
		v30.843h-3.598c-4.259,0-7.711,3.452-7.711,7.711v7.197c0,4.258,3.451,7.711,7.711,7.711h3.598v3.084
		c0,4.258,3.451,7.711,7.711,7.711c4.259,0,7.711-3.452,7.711-7.711v-3.084h3.598c4.259,0,7.711-3.452,7.711-7.711v-7.197
		C286.843,389.317,283.392,385.865,279.133,385.865z"/>
	<path style="fill:#A5AEE5;" d="M395.473,372.854c-54.139,0-98.185-44.045-98.185-98.185s44.045-98.185,98.185-98.185
		s98.185,44.045,98.185,98.185S449.612,372.854,395.473,372.854z"/>
	<path style="fill:#A5AEE5;" d="M148.726,372.854c-54.139,0-98.185-44.045-98.185-98.185s44.045-98.185,98.185-98.185
		s98.185,44.045,98.185,98.185S202.865,372.854,148.726,372.854z"/>
	<path style="fill:#A5AEE5;" d="M47.573,406.487V187.631H0v218.856c0,13.678,11.041,24.806,24.613,24.806h47.573
		C58.614,431.293,47.573,420.165,47.573,406.487z"/>
</g>
<g>
	<path style="fill:#676775;" d="M30.843,396.004v-17.84c0-2.455,1.99-4.446,4.446-4.446h31.205c2.455,0,4.446,1.99,4.446,4.446
		v17.84c0,2.455-1.99,4.446-4.446,4.446H35.289C32.834,400.45,30.843,398.459,30.843,396.004z"/>
	<path style="fill:#676775;" d="M442.088,395.416v-16.663c0-2.78,2.254-5.034,5.034-5.034h30.028c2.78,0,5.034,2.254,5.034,5.034
		v16.663c0,2.78-2.254,5.034-5.034,5.034h-30.028C444.342,400.45,442.088,398.196,442.088,395.416z"/>
</g>
<g>
	<path style="fill:#4C4C59;" d="M49.863,396.004v-17.84c0-2.455,1.99-4.446,4.446-4.446h-19.02c-2.455,0-4.446,1.99-4.446,4.446
		v17.84c0,2.455,1.99,4.446,4.446,4.446h19.02C51.854,400.45,49.863,398.459,49.863,396.004z"/>
	<path style="fill:#4C4C59;" d="M461.108,395.416v-16.663c0-2.78,2.254-5.034,5.034-5.034h-19.02c-2.78,0-5.034,2.254-5.034,5.034
		v16.663c0,2.78,2.254,5.034,5.034,5.034h19.02C463.362,400.45,461.108,398.196,461.108,395.416z"/>
</g>
<path style="fill:#535257;" d="M379.888,357.269c-54.139,0-98.185-44.045-98.185-98.185s44.045-98.185,98.185-98.185
	s98.185,44.045,98.185,98.185S434.027,357.269,379.888,357.269z"/>
<path style="fill:#787680;" d="M411.535,271.743l-3.724,5.654c-2.962,4.497-7.007,8.259-11.696,10.878l-6.411,3.582l24.75,59.124
	c2.727-1.029,5.399-2.17,8.005-3.43c1.064-0.514,2.115-1.052,3.158-1.604c0.181-0.096,0.362-0.189,0.542-0.286
	c1.054-0.566,2.098-1.15,3.131-1.755c0.09-0.052,0.179-0.106,0.269-0.159c13.585-8.017,25.187-19.3,33.581-32.67
	c0.001-0.002,0.002-0.004,0.003-0.005c1.393-2.22,2.698-4.498,3.909-6.827c0.026-0.049,0.052-0.098,0.078-0.147l0.26-0.502
	c1.255-2.457,2.405-4.976,3.453-7.547L411.535,271.743z"/>
<path style="fill:#3E3D42;" d="M414.47,344.374c-53.155-1.577-95.75-45.928-95.236-99.104c0.299-31.025,15.066-58.651,37.86-76.449
	c2.273-1.776,0.535-5.418-2.254-4.681c-43.895,11.589-75.85,52.886-72.955,100.986c2.997,49.778,43.536,89.721,93.351,92.037
	c15.248,0.708,29.783-2.087,42.875-7.644c2.674-1.135,1.848-5.089-1.058-5.099C416.194,344.414,415.334,344.399,414.47,344.374z"/>
<path style="fill:#A3A2A8;" d="M379.888,293.526c-18.991,0-34.442-15.451-34.442-34.442s15.451-34.442,34.442-34.442
	s34.442,15.45,34.442,34.442S398.879,293.526,379.888,293.526z"/>
<path style="fill:#535257;" d="M133.141,357.269c-54.139,0-98.185-44.045-98.185-98.185S79.001,160.9,133.141,160.9
	s98.185,44.045,98.185,98.185S187.28,357.269,133.141,357.269z"/>
<path style="fill:#57565C;" d="M417.414,344.418c-1.941,0-3.867-0.063-5.781-0.175l2.817,6.729c3.071-1.16,6.069-2.467,8.986-3.917
	c0.485-0.242,0.969-0.487,1.451-0.737c0.569-0.295,1.136-0.591,1.698-0.897c0.564-0.306,1.123-0.624,1.681-0.942
	c0.458-0.26,0.92-0.515,1.373-0.782c0.027-0.015,0.052-0.033,0.079-0.048C425.686,344.154,421.58,344.418,417.414,344.418z"/>
<path style="fill:#3E3D42;" d="M167.723,344.374c-53.155-1.577-95.75-45.928-95.236-99.104c0.293-30.388,14.465-57.514,36.464-75.34
	c2.563-2.077,0.458-6.187-2.714-5.281c-42.936,12.249-73.953,53.058-71.099,100.476c2.996,49.778,43.536,89.721,93.351,92.037
	c14.569,0.676,28.489-1.845,41.119-6.919c3.08-1.237,2.262-5.776-1.057-5.847C168.275,344.389,168,344.382,167.723,344.374z"/>
<path style="fill:#787680;" d="M36.311,240.474l2.482-8.594c5.576-19.311,16.823-36.263,32.526-49.019l7.015-5.699l35.79,53.67
	l-4.718,4.768c-3.18,3.213-5.638,6.966-7.309,11.156l-2.536,6.362L36.311,240.474z"/>
<path style="fill:#57565C;" d="M72.5,247.708c-0.007-0.491-0.019-0.983-0.019-1.475c0-19.829,5.92-38.297,16.07-53.749l-9.98-14.965
	c-3.016,2.024-5.915,4.211-8.682,6.548c-0.367,0.309-0.738,0.614-1.099,0.928c-9.753,8.481-17.824,18.847-23.632,30.531
	c-0.025,0.049-0.047,0.099-0.072,0.147c-0.572,1.156-1.117,2.326-1.643,3.506c-0.12,0.271-0.241,0.543-0.359,0.815
	c-0.418,0.959-0.816,1.93-1.205,2.904c-0.156,0.395-0.317,0.789-0.468,1.185c-0.337,0.879-0.653,1.768-0.964,2.66
	c-0.157,0.45-0.324,0.896-0.475,1.35c-0.406,1.217-0.789,2.446-1.148,3.684c-0.01,0.035-0.022,0.068-0.032,0.103l-0.098,0.338
	c-0.778,2.733-1.439,5.513-1.981,8.336L72.5,247.708z"/>
<path style="fill:#A3A2A8;" d="M133.141,293.526c-18.991,0-34.442-15.451-34.442-34.442s15.45-34.442,34.442-34.442
	s34.442,15.45,34.442,34.442S152.132,293.526,133.141,293.526z"/>
<g>
	<path style="fill:#676775;" d="M256.514,414.329c-4.259,0-7.711-3.452-7.711-7.711v-56.546c0-4.258,3.451-7.711,7.711-7.711
		c4.259,0,7.711,3.452,7.711,7.711v56.546C264.225,410.877,260.774,414.329,256.514,414.329z"/>
	<path style="fill:#676775;" d="M290.442,414.329c-4.259,0-7.711-3.452-7.711-7.711v-56.546c0-4.258,3.451-7.711,7.711-7.711
		c4.259,0,7.711,3.452,7.711,7.711v56.546C298.153,410.877,294.701,414.329,290.442,414.329z"/>
	<path style="fill:#676775;" d="M222.586,414.329c-4.259,0-7.711-3.452-7.711-7.711v-56.546c0-4.258,3.451-7.711,7.711-7.711
		s7.711,3.452,7.711,7.711v56.546C230.297,410.877,226.846,414.329,222.586,414.329z"/>
</g>
<path style="fill:#E0E0E2;" d="M236.322,154.769v67.464l-79.926,90.236l11.187,10.76l82.223-92.96
	c1.249-1.411,1.939-3.228,1.939-5.113v-70.388L236.322,154.769L236.322,154.769z"/>
<path style="fill:#C6C5CA;" d="M156.395,312.469l7.043,6.774l78.697-88.974c1.249-1.411,1.939-3.228,1.939-5.113v-70.388h-7.752
	v67.464L156.395,312.469z"/>
<path style="fill:#2B2B2E;" d="M159.871,331.916c-8.413,0-15.257-6.844-15.257-15.257s6.845-15.257,15.257-15.257
	c8.412,0,15.257,6.844,15.257,15.257S168.285,331.916,159.871,331.916z"/>
<path style="fill:#E0E0E2;" d="M354.015,309.462l-77.309-87.229v-67.464h-15.422v70.388c0,1.885,0.69,3.702,1.939,5.113
	l79.957,90.174C346.816,316.796,350.377,313.107,354.015,309.462z"/>
<path style="fill:#C6C5CA;" d="M272.299,229.241c-1.249-1.411-1.939-3.228-1.939-5.113v-69.36h-9.076v70.388
	c0,1.885,0.69,3.702,1.939,5.113l79.957,90.174c1.765-1.77,3.512-3.552,5.26-5.333L272.299,229.241z"/>
<path style="fill:#2B2B2E;" d="M353.157,331.566c-8.22,0-14.908-6.687-14.908-14.908s6.688-14.908,14.908-14.908
	s14.908,6.687,14.908,14.908S361.376,331.566,353.157,331.566z"/>
<g>
	<path style="fill:#3E3D42;" d="M118.649,204.958c29.846-7.989,60.627,9.791,68.616,39.635c0.922,3.446,4.039,5.719,7.444,5.719
		c0.661,0,1.331-0.085,1.999-0.264c4.113-1.101,6.556-5.329,5.455-9.442c-10.19-38.06-49.446-60.734-87.502-50.544
		c-4.113,1.101-6.556,5.329-5.455,9.442C110.308,203.618,114.541,206.06,118.649,204.958z"/>
	<path style="fill:#3E3D42;" d="M379.888,203.052c30.897,0,56.032,25.136,56.032,56.032c0,4.258,3.451,7.711,7.711,7.711
		c4.259,0,7.711-3.452,7.711-7.711c0-39.399-32.054-71.454-71.454-71.454c-4.259,0-7.711,3.452-7.711,7.711
		S375.628,203.052,379.888,203.052z"/>
	<circle style="fill:#3E3D42;" cx="133.141" cy="259.084" r="11.823"/>
	<circle style="fill:#3E3D42;" cx="379.888" cy="259.084" r="11.823"/>
</g>
<g>
	<path style="fill:#4C4C59;" d="M241.606,372.177v-7.197c0-4.258-3.451-7.711-7.711-7.711h-22.618c-4.259,0-7.711,3.452-7.711,7.711
		v7.197c0,4.258,3.451,7.711,7.711,7.711h22.618C238.155,379.888,241.606,376.435,241.606,372.177z"/>
	<path style="fill:#4C4C59;" d="M301.751,357.269h-22.618c-4.259,0-7.711,3.452-7.711,7.711v7.197c0,4.258,3.451,7.711,7.711,7.711
		h22.618c4.259,0,7.711-3.452,7.711-7.711v-7.197C309.462,360.721,306.01,357.269,301.751,357.269z"/>
	<path style="fill:#4C4C59;" d="M267.823,380.916h-22.618c-4.259,0-7.711,3.452-7.711,7.711v7.197c0,4.258,3.451,7.711,7.711,7.711
		h22.618c4.259,0,7.711-3.452,7.711-7.711v-7.197C275.534,384.368,272.083,380.916,267.823,380.916z"/>
</g>
<g>
	<path style="fill:#787680;" d="M49.349,138.281h-6.169c-4.259,0-7.711,3.452-7.711,7.711s3.451,7.711,7.711,7.711h6.169
		c4.259,0,7.711-3.452,7.711-7.711S53.609,138.281,49.349,138.281z"/>
	<path style="fill:#787680;" d="M99.213,138.281h-6.169c-4.259,0-7.711,3.452-7.711,7.711s3.451,7.711,7.711,7.711h6.169
		c4.259,0,7.711-3.452,7.711-7.711S103.472,138.281,99.213,138.281z"/>
	<path style="fill:#787680;" d="M439.512,124.293c1.973,0,3.947-0.753,5.453-2.259l9.45-9.45c3.011-3.011,3.011-7.894,0-10.904
		c-3.012-3.011-7.894-3.011-10.905,0l-9.45,9.45c-3.011,3.011-3.011,7.894,0,10.904
		C435.565,123.539,437.539,124.293,439.512,124.293z"/>
	<path style="fill:#787680;" d="M466.409,142.752c-3.011,3.011-3.011,7.894,0,10.904c1.506,1.505,3.48,2.259,5.453,2.259
		s3.947-0.753,5.453-2.259l9.45-9.45c3.011-3.011,3.011-7.894,0-10.904c-3.012-3.011-7.894-3.011-10.905,0L466.409,142.752z"/>
	<path style="fill:#787680;" d="M443.51,144.57c1.506,1.505,3.48,2.259,5.453,2.259c1.973,0,3.947-0.753,5.453-2.259l23.263-23.263
		c3.011-3.011,3.011-7.894,0-10.904c-3.012-3.011-7.894-3.011-10.905,0l-23.263,23.263
		C440.499,136.676,440.499,141.559,443.51,144.57z"/>
	<circle style="fill:#787680;" cx="337.735" cy="115.149" r="9.253"/>
	<circle style="fill:#787680;" cx="338.249" cy="143.422" r="9.253"/>
	<circle style="fill:#787680;" cx="175.293" cy="115.149" r="9.253"/>
	<circle style="fill:#787680;" cx="174.779" cy="143.422" r="9.253"/>
</g>
<path style="fill:#B7FF78;" d="M221.368,165.012c-7.548,0-13.689-6.142-13.689-13.69v-33.278c0-7.548,6.142-13.69,13.689-13.69
	h70.291c7.548,0,13.689,6.142,13.689,13.69v33.278c0,7.548-6.142,13.69-13.689,13.69H221.368z"/>
<path style="fill:#787680;" d="M391.197,125.944c-4.259,0-7.711-3.452-7.711-7.711V97.671c0-4.258,3.451-7.711,7.711-7.711
	c4.259,0,7.711,3.452,7.711,7.711v20.562C398.908,122.491,395.456,125.944,391.197,125.944z"/>
<circle style="fill:#FF3F62;" cx="391.197" cy="124.289" r="19.129"/>
<path style="fill:#EA345C;" d="M388.518,124.293c0-7.616,4.462-14.174,10.904-17.251c-2.494-1.192-5.276-1.878-8.225-1.878
	c-10.565,0-19.129,8.564-19.129,19.129s8.564,19.129,19.129,19.129c2.949,0,5.731-0.687,8.225-1.878
	C392.98,138.465,388.518,131.908,388.518,124.293z"/>
<path style="fill:#FF3F62;" d="M40.371,128c-4.687,0-8.499-3.812-8.499-8.499v-7.677c0-4.686,3.812-8.499,8.499-8.499H52.16
	c4.687,0,8.499,3.812,8.499,8.499v7.677c0,4.686-3.812,8.499-8.499,8.499H40.371z"/>
<path style="fill:#5BE894;" d="M221.368,165.012h70.291c4.02,0,7.629-1.752,10.135-4.521
	c-36.268-14.425-66.616-31.877-87.293-54.273c-4.072,2.375-6.824,6.779-6.824,11.824v33.278
	C207.679,158.87,213.821,165.012,221.368,165.012z"/>
<g>
</g>
<g>
</g>
<g>
</g>
<g>
</g>
<g>
</g>
<g>
</g>
<g>
</g>
<g>
</g>
<g>
</g>
<g>
</g>
<g>
</g>
<g>
</g>
<g>
</g>
<g>
</g>
<g>
</g>
</svg>
