<?xml version="1.0" encoding="iso-8859-1"?>
<!-- Generator: Adobe Illustrator 19.0.0, SVG Export Plug-In . SVG Version: 6.00 Build 0)  -->
<svg version="1.1" id="Layer_1" xmlns="http://www.w3.org/2000/svg" xmlns:xlink="http://www.w3.org/1999/xlink" x="0px" y="0px"
	 viewBox="0 0 512 512" style="enable-background:new 0 0 512 512;" xml:space="preserve">
<path style="fill:#C6C5CA;" d="M451.244,383.103c8.186-5.609,12.919-15.027,12.532-24.942c-0.388-9.915-5.845-18.919-14.439-23.881
	c-13.286-7.67-40.796-23.554-97.042-56.027c-7.946-4.587-12.842-13.063-12.846-22.238c-0.004-9.175,4.878-17.666,12.823-22.253
	l97.065-56.041c13.811-7.975,18.544-25.634,10.57-39.448c-3.83-6.633-10.136-11.472-17.534-13.455
	c-7.398-1.983-15.28-0.945-21.913,2.884l-97.047,56.03c-7.949,4.589-17.743,4.589-25.692,0c-7.949-4.589-12.846-13.07-12.846-22.25
	V49.425c0-15.948-12.929-28.878-28.878-28.878S227.12,33.477,227.12,49.425v112.058c0,9.179-4.897,17.66-12.846,22.25
	c-7.949,4.59-17.743,4.589-25.692,0l-97.047-56.03c-6.633-3.83-14.514-4.867-21.913-2.884c-7.397,1.983-13.705,6.822-17.534,13.456
	c-7.974,13.812-3.242,31.473,10.57,39.447l97.046,56.03c7.949,4.589,12.846,13.07,12.846,22.25c0,9.18-4.897,17.66-12.846,22.25
	L62.662,334.28c-13.811,7.975-18.544,25.635-10.57,39.448c5.349,9.265,15.055,14.443,25.036,14.443
	c4.899,0,9.864-1.247,14.412-3.873l97.045-56.029c7.949-4.589,17.743-4.589,25.692,0s12.846,13.07,12.846,22.25v112.058
	c0,15.948,12.929,28.878,28.878,28.878s28.878-12.929,28.878-28.878v-112.06c0-9.179,4.897-17.66,12.846-22.25
	c7.949-4.589,17.743-4.589,25.692,0l97.045,56.029c4.548,2.626,9.512,3.873,14.412,3.873
	C440.692,388.17,446.42,386.408,451.244,383.103z"/>
<path style="fill:#8A8A91;" d="M284.878,462.575V350.517c0-9.179,4.897-17.66,12.846-22.249c7.949-4.589,17.743-4.589,25.692,0
	l97.045,56.029c4.548,2.626,9.512,3.873,14.412,3.873c5.82,0,11.548-1.762,16.371-5.068c8.186-5.609,12.919-15.027,12.532-24.942
	c-0.388-9.915-5.845-18.919-14.439-23.881c-13.286-7.67-40.796-23.554-97.042-56.027c-7.946-4.587-12.841-13.063-12.846-22.237
	c-0.006-9.174,4.878-17.666,12.823-22.253l97.065-56.041c13.811-7.974,18.544-25.635,10.57-39.448
	c-3.83-6.633-10.136-11.473-17.534-13.455c-7.398-1.983-15.28-0.945-21.913,2.884l-97.047,56.03c-7.949,4.589-17.743,4.589-25.692,0
	c-7.949-4.589-12.846-13.072-12.846-22.249V49.425c0-15.948-12.929-28.878-28.878-28.878v470.905
	C271.949,491.453,284.878,478.524,284.878,462.575z"/>
<path style="fill:#2D2E30;" d="M256.001,512c-68.38,0-132.668-26.63-181.019-74.982C26.628,388.667,0,324.38,0,255.999
	S26.628,123.333,74.981,74.981C123.333,26.63,187.62,0,256.001,0s132.668,26.63,181.019,74.981
	C485.372,123.333,512,187.62,512,255.999s-26.628,132.667-74.981,181.019C388.667,485.372,324.38,512,256.001,512z M256.001,98.85
	c-86.653,0-157.15,70.498-157.15,157.149c0,86.654,70.498,157.151,157.15,157.151s157.15-70.498,157.15-157.15
	C413.15,169.348,342.653,98.85,256.001,98.85z"/>
<path style="fill:#1D1D1F;" d="M413.15,255.999c0,86.654-70.498,157.151-157.15,157.151V512c68.38,0,132.668-26.63,181.019-74.982
	c48.352-48.352,74.981-112.639,74.981-181.019S485.37,123.333,437.018,74.981C388.667,26.63,324.38,0,256.001,0v98.85
	C342.653,98.85,413.15,169.348,413.15,255.999z"/>
<circle style="fill:#2D2E30;" cx="255.999" cy="255.999" r="37.71"/>
<g>
	<path style="fill:#57565C;" d="M256.001,310.369c-29.979,0-54.37-24.39-54.37-54.37s24.389-54.369,54.37-54.369
		s54.37,24.389,54.37,54.369S285.98,310.369,256.001,310.369z M256.001,234.951c-11.607,0-21.05,9.442-21.05,21.048
		c0,11.607,9.442,21.049,21.05,21.049c11.608,0,21.049-9.443,21.049-21.049C277.05,244.393,267.607,234.951,256.001,234.951z"/>
	<path style="fill:#57565C;" d="M256.001,445.055c-50.499,0-97.975-19.666-133.682-55.374
		c-35.708-35.708-55.373-83.184-55.373-133.682s19.664-97.974,55.373-133.682c35.707-35.707,83.184-55.373,133.682-55.373
		s97.975,19.666,133.682,55.373c35.708,35.708,55.373,83.184,55.373,133.682s-19.666,97.974-55.373,133.682
		C353.974,425.39,306.499,445.055,256.001,445.055z M256.001,100.265c-85.872,0-155.734,69.863-155.734,155.734
		c0,85.873,69.863,155.736,155.734,155.736s155.734-69.863,155.734-155.736C411.735,170.128,341.872,100.265,256.001,100.265z"/>
</g>
<path style="fill:#3E3E42;" d="M411.735,255.999c0,85.873-69.863,155.736-155.734,155.736v33.32
	c50.498,0,97.975-19.666,133.682-55.373c35.708-35.708,55.373-83.184,55.373-133.682s-19.666-97.974-55.373-133.682
	c-35.707-35.707-83.184-55.373-133.682-55.373v33.32C341.872,100.265,411.735,170.128,411.735,255.999z"/>
<path style="fill:#1D1D1F;" d="M256.008,218.291v75.418c20.823-0.004,37.702-16.886,37.702-37.71S276.831,218.295,256.008,218.291z"
	/>
<path style="fill:#3E3E42;" d="M277.049,255.999c0,11.607-9.442,21.049-21.05,21.049v33.32c29.979,0,54.37-24.39,54.37-54.37
	s-24.389-54.369-54.37-54.369v33.32C267.607,234.951,277.049,244.393,277.049,255.999z"/>
<g>
</g>
<g>
</g>
<g>
</g>
<g>
</g>
<g>
</g>
<g>
</g>
<g>
</g>
<g>
</g>
<g>
</g>
<g>
</g>
<g>
</g>
<g>
</g>
<g>
</g>
<g>
</g>
<g>
</g>
</svg>
