<?xml version="1.0" encoding="iso-8859-1"?>
<!-- Generator: Adobe Illustrator 19.0.0, SVG Export Plug-In . SVG Version: 6.00 Build 0)  -->
<svg version="1.1" id="Layer_1" xmlns="http://www.w3.org/2000/svg" xmlns:xlink="http://www.w3.org/1999/xlink" x="0px" y="0px"
	 viewBox="0 0 512 512" style="enable-background:new 0 0 512 512;" xml:space="preserve">
<path style="fill:#007871;" d="M327.689,394.102c-10.343,0-18.729,8.322-18.729,18.665c0,34.077-27.724,61.739-61.801,61.739
	H117.607V37.493h142.26c27.07,0,49.093,21.959,49.093,49.03c0,10.343,8.386,18.698,18.729,18.698
	c10.344,0,18.729-8.338,18.729-18.682c0-47.726-38.827-86.505-86.551-86.505H98.841c-0.715,0-1.418-0.079-2.113,0H61.419
	c-10.343,0-18.729,8.386-18.729,18.729s8.386,18.729,18.729,18.729h18.729v437.013H61.419c-10.343,0-18.729,8.386-18.729,18.729
	s8.386,18.729,18.729,18.729H96.73c0.694,0.079,1.397,0,2.113,0H247.16c54.732,0,99.259-44.464,99.259-99.197
	C346.418,402.424,338.032,394.102,327.689,394.102z"/>
<g>
	<path style="fill:#489B6D;" d="M186.28,474.507h-68.674V37.493h68.674V0.035H98.841c-0.715,0-1.418-0.079-2.113,0H61.419
		c-10.343,0-18.729,8.386-18.729,18.729s8.386,18.729,18.729,18.729h18.729v437.013H61.419c-10.343,0-18.729,8.386-18.729,18.729
		s8.386,18.729,18.729,18.729H96.73c0.694,0.079,1.397,0,2.113,0h87.438V474.507z"/>
	<path style="fill:#489B6D;" d="M350.788,123.522H304.59c-10.343,0-18.729-8.386-18.729-18.729s8.386-18.729,18.729-18.729h46.199
		c10.343,0,18.729,8.386,18.729,18.729S361.132,123.522,350.788,123.522z"/>
</g>
<path style="fill:#A2CE86;" d="M327.689,123.522H304.59c-10.343,0-18.729-8.386-18.729-18.729s8.386-18.729,18.729-18.729h23.099
	V123.522z"/>
<path style="fill:#0EABD9;" d="M269.366,194.772c-2.231,0-4.499-0.401-6.705-1.247c-9.657-3.706-14.483-14.538-10.778-24.196
	l7.876-20.53c3.706-9.658,14.538-14.483,24.196-10.778c9.657,3.706,14.483,14.538,10.778,24.196l-7.876,20.53
	C283.998,190.197,276.897,194.772,269.366,194.772z"/>
<path style="fill:#007AB7;" d="M327.689,194.767c-10.343,0-18.729-8.386-18.729-18.729v-20.53c0-10.343,8.386-18.729,18.729-18.729
	c10.344,0,18.729,8.386,18.729,18.729v20.53C346.418,186.381,338.032,194.767,327.689,194.767z"/>
<path style="fill:#0EABD9;" d="M327.689,194.767c-10.343,0-18.729-8.386-18.729-18.729v-20.53c0-10.343,8.386-18.729,18.729-18.729
	V194.767z"/>
<path style="fill:#007AB7;" d="M386.012,194.772c-7.53,0-14.631-4.575-17.491-12.025l-7.876-20.53
	c-3.705-9.658,1.12-20.49,10.778-24.194c9.657-3.705,20.49,1.12,24.194,10.778l7.876,20.53c3.705,9.658-1.12,20.49-10.778,24.194
	C390.51,194.37,388.242,194.772,386.012,194.772z"/>
<path style="fill:#91C0F1;" d="M438.719,228.684c-10.343,0-212.129-0.039-222.472-0.039s-18.729,8.424-18.729,18.768v42.194
	c0,71.67,58.185,129.979,129.855,129.979s129.855-58.308,129.855-129.979v-42.194C457.228,237.07,449.063,228.684,438.719,228.684z"
	/>
<path style="fill:#D7EDF3;" d="M327.689,228.684c0,0-101.099-0.039-111.443-0.039c-10.345,0-18.729,8.424-18.729,18.768v42.194
	c0,71.67,58.185,129.979,129.855,129.979L327.689,228.684z"/>
<path style="fill:#489B6D;" d="M450.581,262.397H204.798c-10.343,0-18.729-8.386-18.729-18.729c0-10.343,8.386-18.729,18.729-18.729
	h245.783c10.344,0,18.729,8.386,18.729,18.729C469.31,254.011,460.924,262.397,450.581,262.397z"/>
<path style="fill:#A2CE86;" d="M327.689,262.397H204.797c-10.343,0-18.729-8.386-18.729-18.729c0-10.343,8.386-18.729,18.729-18.729
	h122.892V262.397z"/>
<g>
</g>
<g>
</g>
<g>
</g>
<g>
</g>
<g>
</g>
<g>
</g>
<g>
</g>
<g>
</g>
<g>
</g>
<g>
</g>
<g>
</g>
<g>
</g>
<g>
</g>
<g>
</g>
<g>
</g>
</svg>
