<?xml version="1.0" encoding="iso-8859-1"?>
<!-- Generator: Adobe Illustrator 19.0.0, SVG Export Plug-In . SVG Version: 6.00 Build 0)  -->
<svg version="1.1" id="Capa_1" xmlns="http://www.w3.org/2000/svg" xmlns:xlink="http://www.w3.org/1999/xlink" x="0px" y="0px"
	 viewBox="0 0 512 512" style="enable-background:new 0 0 512 512;" xml:space="preserve">
<path style="fill:#FFDA44;" d="M102.858,271.132l-54.505-54.503L171.048,48.286l64.898,102.698L102.858,271.132z"/>
<path style="fill:#FF9811;" d="M409.142,271.132L276.054,150.984l64.898-102.698l122.694,168.343L409.142,271.132z"/>
<path style="fill:#3E3D42;" d="M303.108,165h-94.217L156,100.354V0h200v100.354L303.108,165z"/>
<path style="fill:#FFA733;" d="M150.579,384.036c-10.683,0-20.726-4.16-28.279-11.714l-71.48-71.479l56.566-56.566l71.479,71.48
	c15.593,15.592,15.593,40.964,0.001,56.558l-0.358,0.353C170.996,380.003,161.098,384.036,150.579,384.036z"/>
<path style="fill:#3E3D42;" d="M68.498,311.952c-13.355,0-25.911-5.201-35.354-14.645C23.701,287.865,18.5,275.31,18.5,261.954
	c0-13.354,5.201-25.91,14.645-35.354c19.491-19.493,51.212-19.494,70.707-0.001c19.494,19.496,19.493,51.215,0,70.708
	C94.408,306.751,81.853,311.952,68.498,311.952z"/>
<path style="fill:#EE8700;" d="M361.421,384.036c-10.519,0-20.417-4.033-27.93-11.369l-0.358-0.353
	c-15.592-15.594-15.592-40.966,0.001-56.558l71.479-71.48l56.566,56.566l-71.479,71.48
	C382.146,379.876,372.104,384.036,361.421,384.036z"/>
<g>
	<path style="fill:#2D2D30;" d="M443.502,311.952c-13.354,0-25.91-5.201-35.354-14.645c-19.493-19.493-19.494-51.212-0.001-70.707
		c19.496-19.493,51.216-19.495,70.708,0c9.443,9.443,14.645,21.999,14.645,35.354s-5.201,25.911-14.645,35.354
		C469.413,306.751,456.857,311.952,443.502,311.952z"/>
	<polygon style="fill:#2D2D30;" points="256,0 256,165 303.108,165 356,100.354 356,0 	"/>
</g>
<path style="fill:#A0815C;" d="M351,512H161V322h190V512z"/>
<rect x="256" y="322" style="fill:#6A563D;" width="95" height="190"/>
<path style="fill:#FFDAAA;" d="M296,439.155l-80-32V322h80V439.155z"/>
<polygon style="fill:#A78966;" points="296,439.155 296,322 256,322 256,423.155 "/>
<g>
</g>
<g>
</g>
<g>
</g>
<g>
</g>
<g>
</g>
<g>
</g>
<g>
</g>
<g>
</g>
<g>
</g>
<g>
</g>
<g>
</g>
<g>
</g>
<g>
</g>
<g>
</g>
<g>
</g>
</svg>
