<?xml version="1.0" encoding="iso-8859-1"?>
<!-- Generator: Adobe Illustrator 19.0.0, SVG Export Plug-In . SVG Version: 6.00 Build 0)  -->
<svg version="1.1" id="Capa_1" xmlns="http://www.w3.org/2000/svg" xmlns:xlink="http://www.w3.org/1999/xlink" x="0px" y="0px"
	 viewBox="0 0 512.256 512.256" style="enable-background:new 0 0 512.256 512.256;" xml:space="preserve">
<path style="fill:#FFD15C;" d="M247.723,277.955c-2.133,2.133-5.333,5.333-9.6,7.467l-18.133-18.133l22.4-4.267L247.723,277.955z"/>
<path style="fill:#344A5E;" d="M243.456,410.221c-2.133-3.2-5.333-5.333-9.6-8.533c-28.8-16-101.333-32-101.333-32H69.589v40.533
	H243.456z"/>
<path style="fill:#415A6B;" d="M184.789,410.221c-2.133-2.133-7.467-5.333-17.067-9.6c-17.067-6.4-76.8-27.733-77.867-27.733
	l-21.333-4.267v40.533h116.267V410.221z"/>
<path style="fill:#344A5E;" d="M337.323,410.221l22.4-43.733c0,0-42.667,13.867-53.333,18.133c-10.667,4.267-35.2,9.6-40.533,24.533
	c0,1.067,0,1.067,0,2.133h71.467V410.221z"/>
<path style="fill:#FFD15C;" d="M114.389,124.355l-1.067,6.4c0,0,5.333,12.8,5.333,17.067c0,4.267-2.133,6.4-2.133,6.4
	s4.267,6.4,5.333,10.667c1.067,4.267-1.067,5.333-2.133,5.333c-1.067,0-3.2,1.067-3.2,1.067s-1.067,4.267,0,6.4
	c1.067,1.067-1.067,3.2-2.133,2.133c0,0,3.2,2.133,1.067,5.333s2.133,12.8-7.467,14.933c-9.6,2.133-10.667,3.2-10.667,3.2
	l-3.2,20.267l-41.6-37.333l-2.133-5.333l13.867-52.267l28.8-13.867L114.389,124.355z"/>
<polyline style="fill:#CED6E0;" points="86.656,212.888 93.056,210.755 95.189,209.688 111.189,220.355 123.989,312.088 
	126.123,336.621 93.056,336.621 "/>
<path style="fill:#415A6B;" d="M50.389,179.821c0,0,10.667-3.2,11.733-19.2s6.4-19.2,10.667-18.133
	c4.267,1.067,7.467,8.533,7.467,8.533h5.333c0,0-1.067-7.467,1.067-9.6c3.2-2.133,6.4-2.133,6.4-6.4c0-1.067,0-2.133,0-3.2
	c0-6.4,6.4-10.667,11.733-8.533c0,0,1.067,0,1.067,1.067c4.267,3.2,6.4,5.333,6.4,5.333s10.667-2.133,5.333-12.8
	c-5.333-10.667-35.2-18.133-52.267-7.467s-23.467,35.2-21.333,50.133C47.189,174.488,50.389,179.821,50.389,179.821z"/>
<ellipse transform="matrix(-0.0895 -0.996 0.996 -0.0895 -76.7193 236.2341)" style="fill:#FFD15C;" cx="69.624" cy="153.186" rx="11.733" ry="7.467"/>
<path style="fill:#2B4151;" d="M99.456,218.221l16,35.2l19.2,65.067c0,0,3.2,5.333,19.2,9.6c14.933,3.2,40.533,10.667,40.533,10.667
	s-5.333-6.4-3.2-14.933c2.133-9.6,8.533-14.933,14.933-14.933c0,0-11.733-3.2-13.867-4.267c-3.2-1.067-6.4-2.133-9.6-4.267
	c-3.2-2.133-8.533-3.2-12.8-6.4c-4.267-3.2-9.6-6.4-9.6-6.4s-22.4-32-25.6-38.4c-3.2-6.4-5.333-12.8-6.4-19.2
	c-1.067-6.4-10.667-17.067-20.267-18.133C98.389,210.755,99.456,218.221,99.456,218.221z"/>
<path style="fill:#344A5E;" d="M98.389,206.488c0,0,5.333,4.267,9.6,6.4s11.733,9.6,14.933,16s8.533,85.333,10.667,91.733
	c1.067,6.4,25.6,53.333,26.667,58.667c1.067,6.4,0,12.8,0,12.8l-40.533-19.2c0,0-12.8-140.8-17.067-149.333
	C98.389,213.955,98.389,206.488,98.389,206.488z"/>
<path style="fill:#415A6B;" d="M97.323,207.555l6.4,6.4l-1.067,7.467l5.333,1.067c0,0,13.867,36.267,18.133,64
	s3.2,36.267,3.2,36.267s-8.533-35.2-11.733-46.933c-3.2-10.667-21.333-66.133-21.333-66.133L97.323,207.555z"/>
<path style="fill:#F3F3F3;" d="M49.323,190.488l2.133-10.667c0,0,14.933,4.267,25.6,13.867c10.667,9.6,16,17.067,16,17.067
	l-6.4,17.067L49.323,190.488z"/>
<path style="fill:#344A5E;" d="M1.323,339.821c1.067,5.333,9.6,56.533,11.733,70.4h69.333c14.933-7.467,24.533-18.133,25.6-35.2
	c2.133-19.2,0-49.067,0-49.067s-7.467-57.6-18.133-84.267s-41.6-54.4-41.6-54.4l-2.133,1.067c0,0-8.533,1.067-16,5.333
	s-22.4,26.667-27.733,41.6c-4.267,16-2.133,59.733,1.067,69.333C6.656,316.355,0.256,333.421,1.323,339.821z"/>
<path style="fill:#F7B64C;" d="M245.589,258.755l-21.333-10.667c-1.067-1.067-3.2-1.067-4.267,0c-1.067,0-3.2,1.067-4.267,1.067
	c-3.2,1.067-4.267,1.067-9.6,0c-3.2-1.067-12.8-1.067-20.267-2.133v24.533c5.333,0,12.8,0,13.867,1.067
	c3.2,1.067,3.2,1.067,5.333,3.2c2.133,2.133,17.067,10.667,17.067,12.8s-1.067,2.133-1.067,2.133c0,2.133,1.067,2.133,3.2,2.133
	c2.133,0,3.2-1.067,3.2-1.067c3.2,1.067,8.533-2.133,8.533-2.133c2.133,0,3.2-1.067,5.333-2.133c1.067-2.133,3.2-4.267,2.133-5.333
	c0-1.067-3.2-6.4-4.267-7.467c1.067,1.067,4.267,3.2,4.267,3.2c0,1.067,2.133,5.333,2.133,5.333c0,8.533,5.333,6.4,5.333,6.4v-3.2
	c0-1.067,1.067-2.133,1.067-2.133v-4.267C255.189,273.688,245.589,258.755,245.589,258.755z"/>
<path style="fill:#344A5E;" d="M277.589,290.755c0,0-5.333,6.4-10.667,5.333s-5.333-34.133,0-39.467l18.133,10.667L277.589,290.755z
	"/>
<path style="fill:#ADB3BA;" d="M270.123,266.221l-5.333,21.333c-7.467,0,0-29.867,0-29.867L270.123,266.221z"/>
<path style="fill:#FFD15C;" d="M270.123,257.688l-20.267,1.067c0,0-3.2-2.133-8.533-5.333c-5.333-2.133-6.4-5.333-9.6-5.333
	c-2.133-1.067-10.667,0-10.667,0s-2.133,1.067-2.133,3.2l-3.2,2.133c0,0,3.2,7.467,9.6,2.133c0,0,3.2-1.067,4.267,0
	c0,0,8.533,5.333,10.667,7.467c2.133,2.133,8.533,6.4,9.6,9.6c1.067,3.2,2.133,6.4,2.133,6.4l29.867,7.467l-3.2-20.267
	L270.123,257.688z"/>
<path style="fill:#F3F3F3;" d="M272.256,256.621h-7.467c0,0,5.333,21.333,0,29.867l17.067-1.067
	C281.856,285.421,290.389,264.088,272.256,256.621z"/>
<g>
	<path style="fill:#415A6B;" d="M399.189,194.755c0,0-6.4,3.2-11.733,12.8c-5.333,8.533-6.4,11.733-6.4,11.733s-5.333,6.4-7.467,9.6
		c-2.133,2.133-3.2,2.133-4.267,4.267s-2.133,2.133-4.267,3.2c-2.133,1.067-2.133,1.067-7.467,4.267c-5.333,3.2-18.133,9.6-25.6,9.6
		c-7.467,0-22.4,3.2-27.733,4.267c-5.333,1.067-37.333,2.133-37.333,2.133s13.867,12.8,9.6,25.6c-4.267,12.8-6.4,13.867-9.6,13.867
		c0,0,3.2,2.133,9.6,0c6.4-2.133,17.067-3.2,25.6-4.267c7.467-1.067,38.4-4.267,46.933-6.4c8.533-2.133,25.6-9.6,29.867-10.667
		s8.533-3.2,8.533-3.2L399.189,194.755z"/>
	<path style="fill:#415A6B;" d="M448.256,410.221l-23.467-50.133l-85.333,23.467l-9.6,9.6c0,0-5.333,9.6-5.333,17.067H448.256z"/>
</g>
<path style="fill:#FFD15C;" d="M413.056,113.688c0,0-8.533-1.067-11.733,5.333c-3.2,6.4-9.6,17.067-9.6,19.2s1.067,4.267,0,6.4
	c-1.067,1.067-7.467,9.6-7.467,11.733c0,2.133,0,3.2,2.133,4.267c2.133,1.067,4.267,1.067,4.267,1.067s-3.2,6.4,1.067,7.467
	c0,0-3.2,1.067-1.067,4.267c2.133,2.133-3.2,13.867,5.333,14.933c8.533,1.067,16-1.067,18.133,3.2
	c2.133,4.267-1.067,20.267-1.067,20.267l46.933-26.667l-2.133-7.467l-2.133-54.4L413.056,113.688z"/>
<path style="fill:#344A5E;" d="M386.389,285.421l-7.467,38.4c0,0-12.8,35.2-18.133,44.8c-5.333,9.6-5.333,9.6-5.333,9.6
	l36.267-11.733l4.267-120.533L386.389,285.421z"/>
<polygon style="fill:#F3705A;" points="217.856,410.221 215.723,357.955 192.256,357.955 195.456,410.221 "/>
<path style="fill:#F05540;" d="M56.789,359.021c0,7.467,64,10.667,144,5.333c80-5.333,144-14.933,144-22.4v-12.8
	c0-7.467-64-10.667-144-5.333c-80,4.267-144,14.933-144,22.4L56.789,359.021L56.789,359.021z"/>
<path style="fill:#F3705A;" d="M344.789,329.155c0,7.467-64,18.133-144,22.4s-144,2.133-144-5.333s64-18.133,144-22.4
	C279.723,319.555,344.789,321.688,344.789,329.155z"/>
<path style="fill:#F3F3F3;" d="M294.656,333.421h10.667c0,0,9.6,0,13.867-6.4h-86.4c0,0-18.133,6.4-35.2,4.267l45.867,2.133H294.656
	z"/>
<path style="fill:#CED6E0;" d="M201.856,335.555l103.467-1.067c0,0-1.067,0-6.4-1.067l-102.4-1.067L201.856,335.555z"/>
<path style="fill:#FFD15C;" d="M205.056,309.955c0,0,3.2,1.067,5.333,0c1.067-1.067,8.533-5.333,11.733-6.4
	c3.2-1.067,4.267-1.067,7.467,1.067c3.2,2.133,5.333,4.267,5.333,4.267s2.133-1.067,5.333,3.2c3.2,4.267,4.267,7.467,4.267,7.467
	s-16,3.2-17.067,3.2s0-5.333,0-5.333s-3.2,0-4.267-2.133l-3.2,2.133c0,0,4.267,0,5.333,2.133c1.067,2.133,1.067,5.333-1.067,5.333
	c-2.133,0-5.333,2.133-8.533-1.067c0,0-3.2,4.267-8.533,4.267c-5.333,0-16-2.133-16-2.133s0-6.4,2.133-9.6
	C196.523,314.221,205.056,309.955,205.056,309.955z"/>
<path style="fill:#E8EAE9;" d="M219.989,321.688l42.667-6.4c0,0-21.333,10.667-29.867,13.867c-8.533,3.2-23.467,7.467-32,6.4
	l-5.333-3.2c0,0,7.467,0,13.867-1.067C216.789,330.221,219.989,323.821,219.989,321.688z"/>
<path style="fill:#4ABAA5;" d="M415.189,202.221l28.8-3.2l-25.6,155.733l-34.133,6.4l5.333-119.467l20.267-44.8
	C408.789,197.955,415.189,202.221,415.189,202.221z"/>
<path style="fill:#FFD15C;" d="M382.123,357.955c0,0-3.2,2.133-6.4,3.2c-3.2,1.067-3.2,1.067-4.267,1.067
	c-1.067,0-9.6-1.067-16,2.133c-6.4,3.2-10.667,2.133-10.667,6.4c0,4.267-2.133,5.333-2.133,5.333s-6.4,2.133-8.533,4.267
	c-2.133,1.067-2.133,5.333-2.133,5.333l-2.133,5.333c0,0,1.067,2.133,3.2,2.133c2.133-1.067,3.2-4.267,4.267-4.267
	s5.333-2.133,6.4-3.2c0,0,8.533-1.067,14.933,0c6.4,0,21.333,0,25.6-3.2c3.2-3.2,5.333-5.333,6.4-6.4
	c2.133-1.067,10.667-6.4,10.667-6.4L382.123,357.955z"/>
<path style="fill:#F3F3F3;" d="M387.456,353.688l-6.4,4.267c0,0,5.333,4.267,8.533,7.467c3.2,3.2,10.667,11.733,10.667,12.8
	c0,1.067-1.067,1.067-1.067,1.067s1.067,1.067,2.133,1.067c2.133,0,11.733-8.533,11.733-8.533L387.456,353.688z"/>
<path style="fill:#415A6B;" d="M417.323,151.021l6.4,1.067c0,0,0-7.467,9.6-8.533c9.6-1.067,9.6,11.733,11.733,17.067
	c2.133,5.333,13.867,16,13.867,16s2.133-11.733,5.333-16c3.2-4.267,8.533-19.2,4.267-33.067s-10.667-22.4-28.8-25.6
	c-18.133-3.2-34.133,2.133-37.333,5.333c-3.2,3.2,1.067,10.667,1.067,10.667s8.533-4.267,13.867-3.2
	c4.267,1.067,4.267,2.133,4.267,2.133s-9.6,7.467-5.333,16C419.456,143.555,417.323,151.021,417.323,151.021z"/>
<path style="fill:#F3F3F3;" d="M459.989,183.021c0,0-17.067,16-23.467,21.333c-7.467,5.333-13.867,14.933-13.867,14.933
	l-7.467-17.067l11.733-10.667c3.2-3.2,6.4-5.333,9.6-6.4c8.533-4.267,21.333-8.533,21.333-8.533L459.989,183.021z"/>
<path style="fill:#344A5E;" d="M415.189,196.888c-1.067,2.133-2.133,3.2-3.2,5.333c-1.067,1.067-2.133,3.2-2.133,4.267
	c-2.133,3.2-4.267,6.4-5.333,9.6c-3.2,6.4-5.333,12.8-7.467,20.267c-2.133,6.4-4.267,13.867-6.4,20.267
	c-2.133,7.467-3.2,16-4.267,23.467c0,2.133,1.067,3.2,3.2,3.2c0,1.067,0,1.067,0,2.133l-8.533,24.533
	c1.067-6.4,1.067-59.733,1.067-71.467c0-12.8,8.533-37.333,11.733-41.6c3.2-4.267,4.267-4.267,9.6-6.4
	c2.133-1.067,6.4-1.067,9.6-2.133l1.067,1.067C415.189,191.555,415.189,193.688,415.189,196.888z"/>
<path style="fill:#415A6B;" d="M415.189,195.821c-2.133,4.267-6.4,10.667-9.6,21.333c-4.267,16-11.733,46.933-16,69.333
	c-4.267,22.4-10.667,38.4-10.667,38.4c2.133-6.4,3.2-29.867,3.2-45.867s13.867-64,19.2-73.6c3.2-6.4,10.667-10.667,13.867-11.733
	C415.189,193.688,415.189,194.755,415.189,195.821z"/>
<path style="fill:#344A5E;" d="M430.123,399.555c1.067,5.333,3.2,8.533,6.4,10.667h75.733l0,0c0,0-1.067-25.6-2.133-37.333
	c-1.067-11.733-12.8-69.333-11.733-76.8s4.267-32,6.4-43.733c2.133-11.733,0-41.6-8.533-51.2
	c-8.533-9.6-33.067-13.867-33.067-13.867l-4.267-1.067c-20.267,12.8-51.2,68.267-56.533,84.267s-5.333,29.867-3.2,39.467
	C401.323,319.555,426.923,388.888,430.123,399.555z"/>
<g>
	<path style="fill:#415A6B;" d="M457.856,176.621c0,0-8.533,8.533-13.867,12.8c-4.267,4.267-10.667,17.067-16,25.6
		c-5.333,8.533-22.4,40.533-28.8,58.667c-6.4,18.133-1.067,37.333-1.067,37.333s-2.133-19.2,0-26.667
		c2.133-7.467,18.133-44.8,40.533-72.533l-1.067-1.067l6.4-5.333c0,0,10.667-13.867,19.2-18.133
		C464.256,188.355,462.123,179.821,457.856,176.621z"/>
	<path style="fill:#415A6B;" d="M455.723,256.621c0,0-8.533-10.667-5.333-25.6c0,0,7.467-32,33.067-34.133
		c6.4-1.067,12.8,3.2,16,8.533c3.2,5.333,5.333,12.8,4.267,24.533c-1.067,23.467-4.267,37.333-9.6,53.333
		c-5.333,16-12.8,32-21.333,43.733s-55.467,56.533-55.467,56.533s-19.2-17.067-24.533-22.4c-5.333-5.333-7.467-6.4-7.467-6.4
		s20.267-16,24.533-22.4c5.333-6.4,3.2-7.467,7.467-9.6c4.267-1.067,14.933-17.067,19.2-21.333c4.267-5.333,6.4-9.6,7.467-13.867
		c1.067-3.2,7.467-23.467,7.467-23.467C452.523,263.021,455.723,256.621,455.723,256.621z"/>
</g>
<path style="fill:#F3F3F3;" d="M415.189,192.621c1.067,2.133,1.067,5.333,1.067,9.6c0,0-6.4,2.133-6.4,7.467
	C408.789,208.621,413.056,194.755,415.189,192.621z"/>
<path style="fill:#FFD15C;" d="M221.056,292.888c0,0-3.2,0-4.267-5.333c0,0-2.133,1.067-4.267,0s-1.067-3.2-1.067-3.2
	s-2.133,1.067-3.2-1.067c-1.067-1.067-2.133-2.133-2.133-4.267c0,0-2.133,1.067-4.267,0c-2.133-1.067-1.067-5.333,0-6.4
	c1.067-1.067,5.333,2.133,5.333,4.267c0,0,3.2-2.133,6.4-2.133s3.2,3.2,3.2,3.2s1.067-2.133,4.267-1.067
	c3.2,1.067,1.067,5.333,1.067,5.333s2.133,1.067,2.133,3.2S221.056,290.755,221.056,292.888z"/>
<g>
	<path style="fill:#F3F3F3;" d="M264.789,287.555c7.467,0,5.333-20.267,5.333-20.267"/>
	<path style="fill:#F3F3F3;" d="M194.389,248.088c0,0,0,24.533-1.067,27.733h-26.667l3.2-28.8L194.389,248.088z"/>
</g>
<g>
	<path style="fill:#415A6B;" d="M50.389,180.888c0,0,32,30.933,37.333,40.533c6.4,9.6,18.133,56.533,19.2,72.533
		c1.067,17.067,1.067,33.067,1.067,33.067s-6.4-26.667-9.6-43.733c-3.2-16-17.067-54.4-24.533-68.267
		c-7.467-13.867-27.733-27.733-27.733-27.733L50.389,180.888z"/>
	<path style="fill:#415A6B;" d="M27.989,261.955c0,0-14.933-6.4-17.067-24.533s1.067-35.2,17.067-41.6s37.333,11.733,42.667,21.333
		c5.333,9.6,3.2,11.733,3.2,11.733s21.333,12.8,25.6,13.867c4.267,1.067,7.467,2.133,8.533,1.067
		c1.067-1.067,29.867,1.067,41.6,1.067c11.733,0,33.067,2.133,33.067,2.133s0,32-2.133,35.2c0,0-58.667-1.067-69.333-1.067
		s-19.2,1.067-27.733-1.067C74.923,279.021,27.989,261.955,27.989,261.955z"/>
</g>
<path style="fill:#F3F3F3;" d="M95.189,209.688l4.267,12.8c0,0,3.2-5.333,2.133-10.667s-3.2-10.667-3.2-10.667
	S96.256,208.621,95.189,209.688z"/>
<path style="fill:#E8EAE9;" d="M186.923,332.355l9.6,2.133c0,0-3.2-9.6-1.067-16c2.133-6.4,11.733-8.533,11.733-8.533l-10.667-2.133
	l-19.2,7.467L186.923,332.355z"/>
<path style="fill:#2B4151;" d="M189.056,322.755c-2.133,9.6,3.2,14.933,3.2,14.933s-24.533-7.467-40.533-10.667
	c-5.333-1.067-8.533-2.133-11.733-4.267v-20.267c0,0,48,1.067,49.067,1.067c3.2,1.067,13.867,4.267,13.867,4.267
	C197.589,307.821,192.256,313.155,189.056,322.755z"/>
<path style="fill:#FFD15C;" d="M225.323,319.555c-1.067-2.133-5.333-2.133-5.333-2.133l1.067-1.067h-8.533v11.733
	c2.133-1.067,4.267-3.2,4.267-3.2c3.2,2.133,5.333,1.067,8.533,1.067C226.389,324.888,226.389,321.688,225.323,319.555z"/>
<g>
</g>
<g>
</g>
<g>
</g>
<g>
</g>
<g>
</g>
<g>
</g>
<g>
</g>
<g>
</g>
<g>
</g>
<g>
</g>
<g>
</g>
<g>
</g>
<g>
</g>
<g>
</g>
<g>
</g>
</svg>
