<?xml version="1.0" encoding="iso-8859-1"?>
<!-- Generator: Adobe Illustrator 19.0.0, SVG Export Plug-In . SVG Version: 6.00 Build 0)  -->
<svg version="1.1" id="Layer_1" xmlns="http://www.w3.org/2000/svg" xmlns:xlink="http://www.w3.org/1999/xlink" x="0px" y="0px"
	 viewBox="0 0 512 512" style="enable-background:new 0 0 512 512;" xml:space="preserve">
<path style="fill:#3BA4BC;" d="M506.349,327.983v74.562c-50.07,0-50.07-28.233-100.14-28.233c-50.07,0-50.07,28.233-100.151,28.233
	c-50.07,0-50.07-28.233-100.14-28.233c-50.058,0-50.058,28.233-100.128,28.233s-50.07-28.233-100.14-28.233V299.75
	c50.07,0,50.07,28.233,100.14,28.233s50.07-28.233,100.128-28.233c50.07,0,50.07,28.233,100.14,28.233
	c50.081,0,50.081-28.233,100.151-28.233C456.279,299.75,456.279,327.983,506.349,327.983z"/>
<path style="fill:#FCD577;" d="M506.349,180.622v202.076c-12.885,0-22.458-1.865-30.415-4.645V277.609
	c0-33.636-27.261-60.909-60.92-60.909c-16.818,0-32.042,6.815-43.062,17.847c-11.02,11.02-17.847,26.244-17.847,43.062v84.938
	c-9.969,5.595-20.378,10.941-37.49,12.512v-97.45c0-33.636-27.273-60.909-60.909-60.909c-16.818,0-32.054,6.815-43.074,17.847
	c-11.02,11.02-17.847,26.244-17.847,43.062v70.199c-19.225,1.876-29.918,8.556-41.243,14.897v-85.096
	c0-33.636-27.273-60.909-60.909-60.909c-16.818,0-32.054,6.815-43.074,17.847c-11.02,11.02-17.847,26.244-17.847,43.062v72.957
	c-7.064-2.012-15.439-3.278-26.063-3.278V180.622H506.349z"/>
<rect x="5.651" y="182.319" style="fill:#EAC36E;" width="500.698" height="22.323"/>
<path style="fill:#415E72;" d="M506.349,174.973h-15.823v-35.756h15.823c3.121,0,5.651-2.531,5.651-5.651s-2.531-5.651-5.651-5.651
	h-53.875v-12.809c0-3.121-2.531-5.651-5.651-5.651s-5.651,2.531-5.651,5.651v12.809H262.216v-12.809
	c0-3.121-2.531-5.651-5.651-5.651s-5.651,2.531-5.651,5.651v12.809H71.959v-12.809c0-3.121-2.531-5.651-5.651-5.651
	c-3.121,0-5.651,2.531-5.651,5.651v12.809H5.651c-3.121,0-5.651,2.531-5.651,5.651s2.531,5.651,5.651,5.651h16.954v35.756H5.651
	c-3.121,0-5.651,2.531-5.651,5.651s2.531,5.651,5.651,5.651h500.698c3.121,0,5.651-2.531,5.651-5.651
	S509.469,174.973,506.349,174.973z M479.223,139.216v35.756h-26.749v-35.756C452.474,139.216,479.223,139.216,479.223,139.216z
	 M441.171,174.973h-26.749v-35.756h26.749V174.973z M338.319,139.216h26.749v35.756h-26.749V139.216z M327.017,174.973h-26.749
	v-35.756h26.749V174.973z M376.371,139.216h26.749v35.756h-26.749V139.216z M288.966,139.216v35.756h-26.749v-35.756
	C262.216,139.216,288.966,139.216,288.966,139.216z M250.914,174.973h-26.749v-35.756h26.749V174.973z M148.062,139.216h26.749
	v35.756h-26.749V139.216z M136.759,174.973H110.01v-35.756h26.749V174.973z M186.114,139.216h26.749v35.756h-26.749L186.114,139.216
	L186.114,139.216z M98.707,139.216v35.756H71.959v-35.756C71.959,139.216,98.707,139.216,98.707,139.216z M33.907,139.216h26.749
	v35.756H33.907V139.216z"/>
<g>
	<path style="fill:#EAC36E;" d="M5.651,324.921c10.624,0,18.999,1.277,26.063,3.278v22.368c-7.064-2.012-15.439-3.278-26.063-3.278
		V324.921z"/>
	<path style="fill:#EAC36E;" d="M153.543,340.337c11.325-6.329,22.017-13.02,41.243-14.897v22.367
		c-19.225,1.876-29.918,8.556-41.243,14.897V340.337z"/>
	<path style="fill:#EAC36E;" d="M316.615,352.702c17.112-1.571,27.51-6.928,37.49-12.523v22.367
		c-9.969,5.595-20.378,10.941-37.49,12.512V352.702z"/>
	<path style="fill:#EAC36E;" d="M506.349,353.165v29.533c-12.885,0-22.458-1.865-30.415-4.645v-29.545
		C483.891,351.289,493.464,353.165,506.349,353.165z"/>
</g>
<path style="fill:#4EBFED;" d="M506.349,365.27v37.275c-50.07,0-50.07-28.233-100.14-28.233c-50.07,0-50.07,28.233-100.151,28.233
	c-50.07,0-50.07-28.233-100.14-28.233c-50.058,0-50.058,28.233-100.128,28.233s-50.07-28.233-100.14-28.233v-37.287
	c50.07,0,50.07,28.245,100.14,28.245s50.07-28.245,100.128-28.245c50.07,0,50.07,28.245,100.14,28.245
	c50.081,0,50.081-28.245,100.151-28.245C456.279,337.025,456.279,365.27,506.349,365.27z"/>
<g>
</g>
<g>
</g>
<g>
</g>
<g>
</g>
<g>
</g>
<g>
</g>
<g>
</g>
<g>
</g>
<g>
</g>
<g>
</g>
<g>
</g>
<g>
</g>
<g>
</g>
<g>
</g>
<g>
</g>
</svg>
