<?xml version="1.0"?>
<svg xmlns="http://www.w3.org/2000/svg" xmlns:xlink="http://www.w3.org/1999/xlink" version="1.1" id="Capa_1" x="0px" y="0px" viewBox="0 0 512 512" style="enable-background:new 0 0 512 512;" xml:space="preserve" width="512px" height="512px" class=""><g><g>
	<rect x="10" y="366" style="fill:#E6E6E6" width="90" height="40" data-original="#6E6E6E" class="active-path" data-old_color="#6E6E6E"/>
	<rect x="412" y="366" style="fill:#E6E6E6" width="90" height="40" data-original="#6E6E6E" class="active-path" data-old_color="#6E6E6E"/>
</g><rect x="170" y="106" style="fill:#FAC800;" width="50" height="160" data-original="#FAC800" class=""/><rect x="130" y="106" style="fill:#EE3C32;" width="40" height="160" data-original="#EE3C32"/><path style="fill:#FA9600;" d="M124.533,106C84.474,106,49,141.817,49,186s35.474,80,75.533,80H130V106H124.533z" data-original="#FA9600"/><rect x="302" y="106" style="fill:#E6E6E6;" width="80" height="160" data-original="#E6E6E6"/><path style="fill:#FA9600;" d="M387.467,106H382v160h5.467C427.526,266,463,230.183,463,186S427.526,106,387.467,106z" data-original="#FA9600"/><rect x="260" y="106" style="fill:#EE3C32;" width="42" height="160" data-original="#EE3C32"/><rect x="220" y="106" style="fill:#E6E6E6;" width="40" height="160" data-original="#E6E6E6"/><path d="M502,176h-29.558c-4.901-44.287-41.818-80-84.975-80H124.533c-43.157,0-80.074,35.713-84.975,80H10c-5.523,0-10,4.478-10,10  v220c0,5.522,4.477,10,10,10h90c5.523,0,10-4.478,10-10v-40c0-5.522-4.477-10-10-10H20V196h19.558c4.901,44.287,41.818,80,84.975,80  h262.934c43.157,0,80.074-35.713,84.975-80H492v160h-80c-5.523,0-10,4.478-10,10v40c0,5.522,4.477,10,10,10h90  c5.523,0,10-4.478,10-10V186C512,180.478,507.523,176,502,176z M90,396H20v-20h70V396z M59,186c0-36.318,27.495-67.242,61-69.825  v139.65C86.495,253.242,59,222.318,59,186z M140,116h20v140h-20V116z M180,116h30v140h-30V116z M230,116h20v140h-20V116z M270,116  h22v140h-22V116z M312,116h60v140h-60V116z M392,255.825v-139.65c33.505,2.583,61,33.507,61,69.825S425.505,253.242,392,255.825z   M492,396h-70v-20h70V396z" data-original="#000000" class="" style="fill:#000000"/></g> </svg>
