<?xml version="1.0"?>
<svg xmlns="http://www.w3.org/2000/svg" xmlns:xlink="http://www.w3.org/1999/xlink" version="1.1" id="Capa_1" x="0px" y="0px" width="512px" height="512px" viewBox="0 0 585.918 585.918" style="enable-background:new 0 0 585.918 585.918;" xml:space="preserve" class=""><g><g>
	<path d="M81.728,258.179c-4.708,0.107-7.743,0.627-9.524,1.133v67.306c1.782,0.515,4.674,0.598,7.304,0.693   c19.431,0.798,32.429-10.746,32.429-36.096C112.094,269.166,100.229,257.769,81.728,258.179z" data-original="#000000" class="active-path" data-old_color="#C42323" fill="#C32222"/>
	<path d="M11.176,46.206v492.311l346.22,47.401v-50.583c0.776,0.053,1.542,0.115,2.329,0.115h177.39   c20.745,0,37.627-16.888,37.627-37.628V86.602c0-20.743-16.882-37.628-37.627-37.628h-177.39c-0.787,0-1.553,0.076-2.329,0.123V0   L11.176,46.206z M119.279,333.685c-10.396,8.887-25.882,12.546-44.331,11.674c-10.783-0.515-18.307-1.616-23.379-2.608v-99.364   c7.478-1.625,17.347-2.737,27.938-3.118c18.008-0.651,29.956,2.532,39.48,9.971c10.407,8.01,17.035,21.179,17.035,40.273   C136.023,311.206,128.944,325.263,119.279,333.685z M203.184,350.271l-10.131-20.893c-4.113-7.979-6.73-13.88-9.822-20.42   l-0.328-0.005c-2.268,6.425-5.016,12.162-8.396,19.827l-8.919,19.732l-26.995-1.26l30.323-54.647l-29.252-53.719l27.194-0.975   l9.423,20.001c3.231,6.728,5.654,12.171,8.257,18.454h0.328c2.606-7.171,4.741-12.213,7.53-18.78l9.455-20.917l29.677-1.06   l-32.343,56.47l34.082,59.597L203.184,350.271z M325.143,255.216l-49.617,1.013v27.333l46.269-0.076v22.7l-46.269-0.629v48.084   l-27.806-1.29V235.037l77.422-2.761V255.216z M359.726,70.48h177.39c8.893,0,16.125,7.236,16.125,16.127v411.215   c0,8.893-7.232,16.127-16.125,16.127h-177.39c-0.797,0-1.563-0.111-2.329-0.232V385.953c30.667-13.009,82.021-34.89,82.021-34.89   l-82.021-0.834v-3.864l2.114-0.166l42.143-101.632l-18.776-59.885l24.86,53.226c5.727,13.578,11.413,27.167,17.145,40.741   c10.295,24.358,20.62,48.705,30.894,73.077c8.53,20.237,9.297,22.021,17.8,42.27h66.794c-2.729-6.674,2.31,5.132-0.482-1.508   c-13.839-32.83-27.686-65.653-41.556-98.468c-7.611-18-15.285-35.958-22.887-53.967c-8.284-19.604-16.551-39.219-24.725-58.872   c-1.785-4.299-4.462-7.268-9.207-8.024c-0.221-0.039-70.678,0.257-70.815,0.257c-4.456-0.052-7.001,2.533-8.619,6.3   c-1.584,3.698-3.129,7.417-4.682,11.134V70.722C358.162,70.604,358.929,70.48,359.726,70.48z" data-original="#000000" class="active-path" data-old_color="#C42323" fill="#C32222"/>
</g></g> </svg>
