<?xml version="1.0" encoding="iso-8859-1"?>
<!-- Generator: Adobe Illustrator 19.0.0, SVG Export Plug-In . SVG Version: 6.00 Build 0)  -->
<svg version="1.1" id="Capa_1" xmlns="http://www.w3.org/2000/svg" xmlns:xlink="http://www.w3.org/1999/xlink" x="0px" y="0px"
	 viewBox="0 0 499.588 499.588" style="enable-background:new 0 0 499.588 499.588;" xml:space="preserve">
<path style="fill:#FFFFFF;" d="M452.267,130.803H47.321c-13.188,0-23.273,10.085-23.273,23.273v287.806h451.491V154.076
	C475.539,141.664,465.455,130.803,452.267,130.803z"/>
<path style="fill:#193651;" d="M475.539,449.64H24.048c-4.655,0-7.758-3.103-7.758-7.758V154.076c0-17.067,13.964-31.03,31.03-31.03
	h404.945c17.067,0,31.03,13.964,31.03,31.03v287.806C483.297,446.537,480.194,449.64,475.539,449.64z M31.806,434.125h435.976
	V154.076c0-8.533-6.982-15.515-15.515-15.515H47.321c-8.533,0-15.515,6.982-15.515,15.515V434.125z"/>
<rect x="55.079" y="161.834" style="fill:#2EA2DB;" width="389.43" height="264.533"/>
<path style="fill:#E1E6E9;" d="M314.182,398.44v27.927H168.339V398.44H7.758v52.751c0,20.945,17.067,38.788,38.788,38.788h406.497
	c20.945,0,38.788-17.067,38.788-38.788V398.44H314.182z"/>
<path style="fill:#193651;" d="M491.83,390.682H314.182c-4.655,0-7.758,3.103-7.758,7.758v20.17H176.097v-20.17
	c0-4.655-3.103-7.758-7.758-7.758H7.758c-4.655,0-7.758,3.103-7.758,7.758v52.751c0,25.6,20.945,46.545,46.545,46.545h406.497
	c25.6,0,46.545-20.945,46.545-46.545V398.44C499.588,394.561,495.709,390.682,491.83,390.682z M484.073,451.191
	c0,17.067-13.964,31.03-31.03,31.03H46.545c-17.067,0-31.03-13.964-31.03-31.03v-44.994h145.067v20.17
	c0,4.655,3.103,7.758,7.758,7.758h145.842c4.655,0,7.758-3.103,7.758-7.758v-20.17h162.133L484.073,451.191L484.073,451.191z"/>
<g>
	<rect x="58.182" y="436.452" style="fill:#193651;" width="15.515" height="15.515"/>
	<rect x="100.073" y="436.452" style="fill:#193651;" width="15.515" height="15.515"/>
</g>
<g>
	<rect x="384" y="436.452" style="fill:#193651;" width="15.515" height="15.515"/>
	<rect x="425.891" y="436.452" style="fill:#193651;" width="15.515" height="15.515"/>
</g>
<path style="fill:#FDBF5E;" d="M321.164,233.203c31.03-22.497,51.976-58.958,51.976-100.848
	c0-70.594-58.958-127.224-130.327-123.345c-64.388,3.103-115.588,57.406-117.139,121.794c0,41.891,20.945,79.903,52.751,102.4
	c7.758,5.43,11.636,13.964,11.636,23.273h120.242l0,0C309.527,247.167,314.182,238.634,321.164,233.203z"/>
<path style="fill:#193651;" d="M309.527,264.234H190.061c-4.655,0-7.758-3.103-7.758-7.758c0-6.982-3.103-13.188-8.533-17.067
	c-34.909-24.824-55.855-65.939-55.079-108.606C119.467,61.761,174.545,5.131,242.812,2.028
	c75.248-3.879,138.085,56.63,138.085,131.103c0,42.667-20.945,82.23-55.079,107.055c-5.43,3.879-8.533,10.085-8.533,17.067
	C317.285,261.131,314.182,264.234,309.527,264.234z M197.042,248.719h106.279c1.552-8.533,6.982-16.291,13.964-21.721
	c30.255-21.721,48.873-56.63,48.873-94.642c0-65.939-55.079-119.467-121.794-115.588c-60.509,3.103-108.606,53.527-109.382,114.036
	c-0.776,38.012,17.842,73.697,48.873,96.194C190.061,232.428,194.715,240.185,197.042,248.719z"/>
<path style="fill:#FFFFFF;" d="M216.436,324.743c0,15.515,12.412,27.152,27.152,27.152h11.636c15.515,0,27.152-12.412,27.152-27.152
	H216.436z"/>
<path style="fill:#193651;" d="M283.152,316.985h-66.715c-4.655,0-7.758,3.103-7.758,7.758c0,19.394,15.515,34.909,34.909,34.909
	h11.636c19.394,0,34.909-15.515,34.909-34.909C290.909,320.088,287.03,316.985,283.152,316.985z M255.224,344.137h-11.636
	c-7.758,0-15.515-4.655-17.842-11.636h48.097C270.739,339.482,263.758,344.137,255.224,344.137z"/>
<path style="fill:#FFFFFF;" d="M190.061,256.476v55.855c0,6.982,5.43,12.412,12.412,12.412h95.418
	c6.982,0,12.412-5.43,12.412-12.412v-55.855H190.061z"/>
<path style="fill:#193651;" d="M297.115,332.5h-94.642c-10.861,0-20.17-9.309-20.17-20.17v-55.855c0-4.655,3.103-7.758,7.758-7.758
	h120.242c4.655,0,7.758,3.103,7.758,7.758v55.855C317.285,323.191,308.752,332.5,297.115,332.5z M197.818,264.234v48.097
	c0,2.327,2.327,4.655,4.655,4.655h95.418c2.327,0,4.655-2.327,4.655-4.655v-48.097H197.818z"/>
<g>
	<rect x="197.818" y="272.767" style="fill:#E1E6E9;" width="103.951" height="12.412"/>
	<rect x="197.818" y="296.04" style="fill:#E1E6E9;" width="103.951" height="12.412"/>
</g>
<path style="fill:#FFFFFF;" d="M249.794,40.04c-1.552,0-3.103,0-4.655,0c-47.321,2.327-86.885,43.442-87.661,90.764
	c-0.776,30.255,13.964,58.958,38.788,76.8c6.206,4.655,12.412,10.861,16.291,17.842v23.273h75.248v-23.273
	c3.879-6.982,9.309-13.188,16.291-17.842c24.048-17.067,38.788-45.77,38.788-75.248C342.109,81.931,300.994,40.04,249.794,40.04z"/>
<polygon style="fill:#193651;" points="249.794,117.616 267.636,82.706 245.139,74.949 226.521,140.888 253.673,129.252 
	235.83,174.246 273.067,112.961 "/>
<g>
</g>
<g>
</g>
<g>
</g>
<g>
</g>
<g>
</g>
<g>
</g>
<g>
</g>
<g>
</g>
<g>
</g>
<g>
</g>
<g>
</g>
<g>
</g>
<g>
</g>
<g>
</g>
<g>
</g>
</svg>
