<?xml version="1.0" encoding="iso-8859-1"?>
<!-- Generator: Adobe Illustrator 19.0.0, SVG Export Plug-In . SVG Version: 6.00 Build 0)  -->
<svg version="1.1" id="Capa_1" xmlns="http://www.w3.org/2000/svg" xmlns:xlink="http://www.w3.org/1999/xlink" x="0px" y="0px"
	 viewBox="0 0 511.878 511.878" style="enable-background:new 0 0 511.878 511.878;" xml:space="preserve">
<path style="fill:#656D78;" d="M415.98,291.93c0-6.639-5.358-11.997-11.998-11.997c-6.639,0-11.997,5.358-11.997,11.997
	c0,6.64,5.358,11.997,11.997,11.997C410.622,303.927,415.98,298.57,415.98,291.93z M403.982,323.923
	c-17.676,0-31.992-14.317-31.992-31.993c0-17.675,14.316-31.992,31.992-31.992c11.842,0,22.151,6.405,27.674,15.996h0.086
	c2.718,4.718,4.232,10.162,4.232,15.996c0,9.6-4.232,18.16-10.872,23.995C419.494,320.884,412.058,323.923,403.982,323.923z"/>
<g style="opacity:0.2;">
	<path style="fill:#FFFFFF;" d="M379.988,291.93c0-16.512,12.544-29.931,28.595-31.648c-1.507-0.219-3.038-0.344-4.601-0.344
		c-17.676,0-31.992,14.317-31.992,31.992c0,17.676,14.316,31.993,31.992,31.993c1.422,0,2.781-0.203,4.155-0.391
		C392.297,321.619,379.988,308.286,379.988,291.93z"/>
</g>
<g style="opacity:0.2;">
	<path d="M427.976,291.93c0,16.512-12.543,29.931-28.594,31.649c1.507,0.219,3.038,0.344,4.6,0.344
		c17.676,0,31.992-14.317,31.992-31.993c0-17.675-14.316-31.992-31.992-31.992c-1.421,0-2.78,0.203-4.155,0.391
		C415.668,262.242,427.976,275.575,427.976,291.93z"/>
</g>
<path style="fill:#AAB2BD;" d="M403.982,279.933c6.64,0,11.998,5.358,11.998,11.997c0,6.64-5.358,11.997-11.998,11.997
	c-6.639,0-11.997-5.357-11.997-11.997C391.985,285.292,397.343,279.933,403.982,279.933z"/>
<g style="opacity:0.5;">
	<path style="fill:#FFFFFF;" d="M399.983,291.93c0-5.226,3.343-9.614,7.998-11.263c-1.257-0.445-2.593-0.734-3.999-0.734
		c-6.639,0-11.997,5.358-11.997,11.997c0,6.64,5.358,11.997,11.997,11.997c1.406,0,2.742-0.289,3.999-0.734
		C403.326,301.545,399.983,297.156,399.983,291.93z"/>
</g>
<g style="opacity:0.2;">
	<path d="M407.981,291.93c0,5.226-3.343,9.615-7.998,11.263c1.258,0.445,2.594,0.734,3.999,0.734c6.64,0,11.998-5.357,11.998-11.997
		c0-6.639-5.358-11.997-11.998-11.997c-1.405,0-2.741,0.289-3.999,0.734C404.638,282.316,407.981,286.705,407.981,291.93z"/>
</g>
<path style="fill:#E6E9ED;" d="M115.972,307.926v7.999H73.104c6.639-5.835,10.876-14.396,10.876-23.995
	c0-5.834-1.52-11.278-4.237-15.996h58.303C124.689,284.174,115.972,294.734,115.972,307.926z"/>
<path style="fill:#656D78;" d="M3.999,227.946V211.95h63.985v31.992l-15.997,15.996c-17.675,0-31.993,14.317-31.993,31.992
	L3.999,275.934V227.946z"/>
<g style="opacity:0.1;">
	<path d="M3.999,227.946V211.95h63.985v31.992l-15.997,15.996c-17.675,0-31.993,14.317-31.993,31.992L3.999,275.934V227.946z"/>
</g>
<g style="opacity:0.3;">
	<rect x="3.999" y="211.949" style="fill:#FFFFFF;" width="63.985" height="7.998"/>
</g>
<path style="fill:#656D78;" d="M63.985,291.93c0-6.639-5.358-11.997-11.998-11.997S39.99,285.291,39.99,291.93
	c0,6.64,5.358,11.997,11.997,11.997S63.985,298.57,63.985,291.93z M51.987,323.923c-17.675,0-31.993-14.317-31.993-31.993
	c0-17.675,14.317-31.992,31.993-31.992c11.837,0,22.155,6.405,27.673,15.996h0.082c2.718,4.718,4.237,10.162,4.237,15.996
	c0,9.6-4.237,18.16-10.876,23.995C67.503,320.884,60.064,323.923,51.987,323.923z"/>
<g style="opacity:0.2;">
	<path style="fill:#FFFFFF;" d="M27.993,291.93c0-16.512,12.54-29.931,28.595-31.648c-1.503-0.219-3.039-0.344-4.601-0.344
		c-17.675,0-31.993,14.317-31.993,31.992c0,17.676,14.317,31.993,31.993,31.993c1.417,0,2.781-0.203,4.151-0.391
		C40.303,321.619,27.993,308.286,27.993,291.93z"/>
</g>
<g style="opacity:0.2;">
	<path d="M75.982,291.93c0,16.512-12.54,29.931-28.595,31.649c1.503,0.219,3.038,0.344,4.6,0.344
		c17.675,0,31.993-14.317,31.993-31.993c0-17.675-14.317-31.992-31.993-31.992c-1.417,0-2.781,0.203-4.151,0.391
		C63.672,262.242,75.982,275.575,75.982,291.93z"/>
</g>
<path style="fill:#AAB2BD;" d="M51.987,279.933c6.639,0,11.998,5.358,11.998,11.997c0,6.64-5.358,11.997-11.998,11.997
	S39.99,298.57,39.99,291.93C39.99,285.292,45.348,279.933,51.987,279.933z"/>
<g style="opacity:0.5;">
	<path style="fill:#FFFFFF;" d="M47.988,291.93c0-5.226,3.343-9.614,7.998-11.263c-1.257-0.445-2.589-0.734-3.999-0.734
		c-6.639,0-11.997,5.358-11.997,11.997c0,6.64,5.358,11.997,11.997,11.997c1.41,0,2.742-0.289,3.999-0.734
		C51.332,301.545,47.988,297.156,47.988,291.93z"/>
</g>
<g style="opacity:0.2;">
	<path d="M55.986,291.93c0,5.226-3.343,9.615-7.998,11.263c1.257,0.445,2.589,0.734,3.999,0.734c6.639,0,11.998-5.357,11.998-11.997
		c0-6.639-5.358-11.997-11.998-11.997c-1.41,0-2.742,0.289-3.999,0.734C52.644,282.316,55.986,286.705,55.986,291.93z"/>
</g>
<path style="fill:#E6E9ED;" d="M435.896,259.938c34.953,3.358,55.987,7.998,55.987,7.998l-7.998,7.998v15.996h-23.994
	l-32.477-32.469L435.896,259.938z"/>
<path style="fill:#FFFFFF;" d="M435.896,267.936c23.401,2.249,40.515,5.062,49.302,6.687l6.686-6.687c0,0-21.034-4.64-55.987-7.998
	l-8.481-0.477L435.896,267.936L435.896,267.936z"/>
<path style="fill:#ED5565;" d="M403.982,258.103l23.433,1.358l32.477,32.469h23.994h23.994v23.995h-63.984h-18.871
	c6.64-5.835,10.872-14.396,10.872-23.995c0-17.675-14.316-31.992-31.992-31.992L403.982,258.103z"/>
<polygon style="fill:#656D78;" points="355.916,315.925 161.481,315.925 309.208,292.571 "/>
<path style="fill:#ED5565;" d="M371.912,256.259l32.07,1.844l-0.078,1.835c-14.395,0-26.556,9.521-30.555,22.558l-64.142,10.075
	L161.48,315.925h-45.509v-7.999c0-13.192,8.717-23.752,22.073-31.992c25.037-15.512,66.547-22.791,98.059-23.83
	c2.718-0.078,5.28-0.164,7.838-0.164c19.194,0,37.991,0.32,55.987,0.883c13.762,0.398,27.196,0.961,39.99,1.522
	C351.042,254.978,361.679,255.619,371.912,256.259z"/>
<g style="opacity:0.2;">
	<path d="M107.974,307.926v7.999h7.998v-7.999c0-13.192,8.717-23.752,22.073-31.992h-13.462
		C111.235,287.306,107.974,299.257,107.974,307.926z"/>
</g>
<g style="opacity:0.2;">
	<polygon points="309.208,292.571 161.481,315.925 212.075,315.925 309.208,300.569 321.377,298.656 	"/>
</g>
<path style="fill:#ED5565;" d="M67.984,243.942h7.998c0,0,47.988-31.992,111.974-31.992c31.992,0,39.99,0,39.99,0v24.08l7.998-0.086
	v7.998l0.16,8.162c-31.512,1.039-73.021,8.318-98.059,23.83H79.743h-0.082c-5.519-9.591-15.836-15.996-27.673-15.996L67.984,243.942
	z"/>
<g style="opacity:0.2;">
	<path d="M235.948,244.114h-0.105c-31.461,1.031-74.783,8.154-101.995,25.018c-3.597,2.218-6.562,4.507-9.264,6.803h13.462
		c25.037-15.512,66.547-22.791,98.059-23.83L235.948,244.114z"/>
</g>
<g style="opacity:0.2;">
	<path d="M51.987,251.94c-19.562,0-35.82,14.146-39.256,32.727l7.264,7.264c0-17.675,14.317-31.992,31.993-31.992l7.26-7.264
		C56.869,252.237,54.452,251.94,51.987,251.94z"/>
</g>
<g style="opacity:0.2;">
	<path d="M86.674,271.943l-2.39-4.007h-0.332c-6.019-8.021-14.891-13.427-24.705-15.262l-7.26,7.264
		c11.837,0,22.155,6.405,27.673,15.996h0.082h8.889C88.042,274.576,87.417,273.232,86.674,271.943z"/>
</g>
<g style="opacity:0.3;">
	<path style="fill:#FFFFFF;" d="M187.956,211.95c-63.985,0-111.974,31.992-111.974,31.992h-7.998l-8.736,8.732
		c2.917,0.547,5.741,1.406,8.439,2.569l2.671-3.304h5.624c0,0,47.988-31.992,111.974-31.992c31.992,0,39.99,0,39.99,0v-7.998
		C227.946,211.95,219.948,211.95,187.956,211.95z"/>
</g>
<g style="opacity:0.2;">
	<path d="M364.843,283.831l8.506-1.335c3.999-13.036,16.16-22.558,30.555-22.558l0.078-1.835l-19.479-1.117
		c-8.811,4.857-15.66,12.934-18.761,23.041C365.351,281.253,365.117,282.55,364.843,283.831z"/>
</g>
<g style="opacity:0.2;">
	<path d="M435.849,315.925c5.171-6.866,8.046-15.271,8.046-23.995c0-9.575-3.522-18.253-9.154-25.15l-5.694-5.686
		c-0.664-0.547-1.289-1.148-1.999-1.656l-23.065-1.335l-0.078,1.835c17.676,0,31.992,14.317,31.992,31.992
		c0,9.6-4.232,18.16-10.872,23.995H435.849z"/>
</g>
<g style="opacity:0.3;">
	<path style="fill:#FFFFFF;" d="M483.885,291.93h-23.994l-25.143-25.143c3.733,4.577,6.412,9.99,7.881,15.88l15.262,17.261h25.994
		h23.994v-7.998H483.885z"/>
</g>
<g style="opacity:0.3;">
	<path style="fill:#FFFFFF;" d="M374.865,264.429c2.812-2.969,6.061-5.468,9.638-7.443l-12.591-0.727
		c-10.232-0.641-20.87-1.281-31.992-1.914c-12.794-0.562-26.229-1.124-39.99-1.522c-17.996-0.562-36.793-0.883-55.987-0.883
		c-2.558,0-5.12,0.086-7.838,0.164c-31.512,1.039-73.021,8.318-98.059,23.83c-13.356,8.24-22.073,18.8-22.073,31.992v7.999
		c0-13.193,8.717-23.753,22.073-31.993c25.037-15.512,66.547-22.791,98.059-23.83c2.718-0.078,5.28-0.164,7.838-0.164
		c19.194,0,37.991,0.32,55.987,0.883c13.762,0.398,27.196,0.96,39.99,1.522c11.122,0.633,21.76,1.273,31.992,1.914L374.865,264.429z
		"/>
</g>
<g>
	<path style="fill:#3A3847;" d="M211.946,311.925c-1.934,0-3.636-1.405-3.944-3.374c-0.348-2.179,1.144-4.233,3.323-4.577
		l151.964-23.994c2.172-0.336,4.233,1.148,4.577,3.327c0.344,2.18-1.148,4.233-3.327,4.577l-151.964,23.994
		C212.364,311.91,212.153,311.925,211.946,311.925z"/>
	<path style="fill:#3A3847;" d="M115.972,311.925c-2.21,0-3.999-1.788-3.999-3.999c0-45.325,88.913-59.985,131.969-59.985
		c41.248,0,84.395,1.469,128.235,4.366c2.203,0.148,3.874,2.054,3.726,4.257c-0.148,2.202-2.046,3.944-4.257,3.726
		c-43.661-2.89-86.636-4.351-127.704-4.351c-49.996,0-123.971,16.52-123.971,51.987
		C119.971,310.137,118.183,311.925,115.972,311.925z"/>
	<path style="fill:#3A3847;" d="M483.885,287.931c-2.21,0-3.999-1.788-3.999-3.999v-7.998c0-1.062,0.422-2.077,1.172-2.827
		l2.671-2.672c-8.951-1.616-25.744-4.326-48.207-6.514c-2.203-0.219-3.812-2.172-3.593-4.374c0.203-2.194,2.218-3.749,4.357-3.593
		c34.773,3.39,55.581,7.881,56.448,8.076c1.429,0.312,2.569,1.375,2.991,2.78c0.406,1.406,0.016,2.921-1.016,3.952l-6.826,6.827
		v6.342C487.884,286.143,486.095,287.931,483.885,287.931z"/>
	<path style="fill:#3A3847;" d="M459.891,295.929c-1.023,0-2.047-0.391-2.827-1.172l-15.997-15.996
		c-1.562-1.562-1.562-4.092,0-5.654c1.562-1.562,4.093-1.562,5.655,0l15.996,15.996c1.562,1.562,1.562,4.093,0,5.654
		C461.937,295.539,460.914,295.929,459.891,295.929z"/>
	<path style="fill:#3A3847;" d="M355.916,319.923H83.98c-2.21,0-3.999-1.788-3.999-3.998c0-2.211,1.789-4,3.999-4h254.994
		l-16.84-8.42c-1.976-0.991-2.772-3.39-1.789-5.365c0.984-1.969,3.391-2.789,5.366-1.789l31.993,15.996
		c1.663,0.828,2.53,2.695,2.101,4.499C359.383,318.651,357.775,319.923,355.916,319.923z"/>
	<path style="fill:#3A3847;" d="M75.986,247.941c-1.293,0-2.562-0.625-3.332-1.781c-1.226-1.835-0.73-4.319,1.109-5.545
		c2-1.336,49.738-32.664,114.192-32.664h39.99c2.207,0,3.999,1.788,3.999,3.999l0.008,20.042l3.94-0.047
		c1.102,0.031,2.101,0.406,2.858,1.156c0.762,0.749,1.191,1.772,1.191,2.843v7.998c0,2.21-1.789,3.999-3.999,3.999
		s-3.999-1.789-3.999-3.999v-3.944l-3.94,0.047c-1.137-0.078-2.105-0.406-2.858-1.156c-0.762-0.75-1.191-1.772-1.191-2.843
		l-0.008-20.097h-35.991c-62.056,0-109.287,31.008-109.756,31.32C77.517,247.722,76.747,247.941,75.986,247.941z"/>
	<path style="fill:#3A3847;" d="M84.863,261.251c-1.305,0-2.582-0.641-3.351-1.812c-1.21-1.843-0.695-4.327,1.156-5.529
		c1.867-1.227,46.403-29.962,105.288-29.962h23.998c2.21,0,3.999,1.788,3.999,3.999c0,2.21-1.789,3.999-3.999,3.999h-23.998
		c-56.526,0-99.121,27.478-100.906,28.649C86.374,261.04,85.612,261.251,84.863,261.251z"/>
	<path style="fill:#3A3847;" d="M51.987,327.921c-19.847,0-35.992-16.145-35.992-35.991s16.146-35.991,35.992-35.991
		c19.847,0,35.992,16.145,35.992,35.991S71.835,327.921,51.987,327.921z M51.987,263.937c-15.434,0-27.994,12.56-27.994,27.993
		c0,15.435,12.56,27.993,27.994,27.993s27.994-12.559,27.994-27.993C79.981,276.497,67.421,263.937,51.987,263.937z"/>
	<path style="fill:#3A3847;" d="M51.987,307.926c-8.822,0-15.996-7.178-15.996-15.996s7.174-15.996,15.996-15.996
		s15.997,7.178,15.997,15.996S60.81,307.926,51.987,307.926z M51.987,283.932c-4.409,0-7.998,3.585-7.998,7.998
		s3.589,7.998,7.998,7.998s7.999-3.585,7.999-7.998S56.397,283.932,51.987,283.932z"/>
	<path style="fill:#3A3847;" d="M403.904,327.921c-19.847,0-35.991-16.145-35.991-35.991s16.144-35.991,35.991-35.991
		c19.848,0,35.992,16.145,35.992,35.991S423.751,327.921,403.904,327.921z M403.904,263.937c-15.434,0-27.993,12.56-27.993,27.993
		c0,15.435,12.56,27.993,27.993,27.993s27.994-12.559,27.994-27.993C431.898,276.497,419.337,263.937,403.904,263.937z"/>
	<path style="fill:#3A3847;" d="M403.904,307.926c-8.826,0-15.996-7.178-15.996-15.996s7.17-15.996,15.996-15.996
		s15.996,7.178,15.996,15.996S412.73,307.926,403.904,307.926z M403.904,283.932c-4.404,0-7.998,3.585-7.998,7.998
		s3.594,7.998,7.998,7.998c4.405,0,7.998-3.585,7.998-7.998S408.309,283.932,403.904,283.932z"/>
	<path style="fill:#3A3847;" d="M11.997,287.931c-1.023,0-2.046-0.391-2.827-1.172l-7.998-7.998C0.422,278.011,0,276.996,0,275.934
		V211.95c0-2.211,1.789-3.999,3.999-3.999h63.985c2.21,0,3.999,1.788,3.999,3.999v31.992c0,1.062-0.422,2.077-1.172,2.827
		l-7.998,7.998c-1.562,1.562-4.093,1.562-5.655,0s-1.562-4.093,0-5.654l6.827-6.827v-26.337H7.998v58.33l6.827,6.826
		c1.562,1.562,1.562,4.093,0,5.654C14.043,287.541,13.02,287.931,11.997,287.931z"/>
	<path style="fill:#3A3847;" d="M507.879,319.923h-63.984c-2.211,0-3.999-1.788-3.999-3.998c0-2.211,1.788-4,3.999-4h63.984
		c2.211,0,3.999,1.789,3.999,4C511.878,318.135,510.09,319.923,507.879,319.923z"/>
	<path style="fill:#3A3847;" d="M507.879,319.923c-2.21,0-3.999-1.788-3.999-3.998V291.93c0-2.21,1.789-3.999,3.999-3.999
		c2.211,0,3.999,1.789,3.999,3.999v23.995C511.878,318.135,510.09,319.923,507.879,319.923z"/>
	<path style="fill:#3A3847;" d="M507.879,295.929h-47.988c-2.211,0-3.999-1.788-3.999-3.999c0-2.21,1.788-3.999,3.999-3.999h47.988
		c2.211,0,3.999,1.789,3.999,3.999C511.878,294.141,510.09,295.929,507.879,295.929z"/>
	<path style="fill:#3A3847;" d="M123.97,279.933H91.978c-2.21,0-3.999-1.789-3.999-3.999s1.789-3.999,3.999-3.999h31.992
		c2.21,0,3.999,1.789,3.999,3.999S126.181,279.933,123.97,279.933z"/>
	<path style="fill:#3A3847;" d="M275.934,287.931c-2.21,0-3.999-1.788-3.999-3.999v-15.996c0-2.21,1.789-3.999,3.999-3.999
		c2.211,0,3.999,1.789,3.999,3.999v15.996C279.933,286.143,278.145,287.931,275.934,287.931z"/>
	<path style="fill:#3A3847;" d="M299.929,256.806c-2.211,0-4-1.789-4-3.999v-16.863c0-2.211,1.789-3.999,4-3.999
		c2.21,0,3.998,1.788,3.998,3.999v16.863C303.927,255.017,302.139,256.806,299.929,256.806z"/>
	<path style="fill:#3A3847;" d="M307.927,239.943h-15.996c-2.211,0-4-1.789-4-3.999c0-2.211,1.789-3.999,4-3.999h15.996
		c2.21,0,3.999,1.788,3.999,3.999C311.926,238.154,310.137,239.943,307.927,239.943z"/>
	<path style="fill:#3A3847;" d="M339.919,258.43c-2.211,0-3.999-1.788-3.999-3.999v-2.491c0-2.21,1.788-3.999,3.999-3.999
		c2.21,0,3.999,1.789,3.999,3.999v2.491C343.918,256.642,342.129,258.43,339.919,258.43z"/>
	<path style="fill:#3A3847;" d="M35.991,231.945H3.999c-2.21,0-3.999-1.789-3.999-3.999c0-2.211,1.789-3.999,3.999-3.999h31.993
		c2.21,0,3.999,1.788,3.999,3.999C39.99,230.156,38.202,231.945,35.991,231.945z"/>
	<path style="fill:#3A3847;" d="M443.895,223.947H379.91c-2.21,0-3.999-1.789-3.999-3.999c0-2.211,1.789-3.999,3.999-3.999h63.985
		c2.21,0,3.999,1.788,3.999,3.999C447.894,222.158,446.105,223.947,443.895,223.947z"/>
	<path style="fill:#3A3847;" d="M363.914,223.947h-7.998c-2.211,0-3.999-1.789-3.999-3.999c0-2.211,1.788-3.999,3.999-3.999h7.998
		c2.211,0,3.999,1.788,3.999,3.999C367.913,222.158,366.125,223.947,363.914,223.947z"/>
	<path style="fill:#3A3847;" d="M347.918,191.955H243.942c-2.21,0-3.999-1.789-3.999-3.999c0-2.211,1.789-3.999,3.999-3.999h103.976
		c2.211,0,3.999,1.788,3.999,3.999C351.917,190.166,350.128,191.955,347.918,191.955z"/>
	<path style="fill:#3A3847;" d="M379.91,191.955h-15.996c-2.211,0-3.999-1.789-3.999-3.999c0-2.211,1.788-3.999,3.999-3.999h15.996
		c2.211,0,3.999,1.788,3.999,3.999C383.909,190.166,382.121,191.955,379.91,191.955z"/>
</g>
<g>
</g>
<g>
</g>
<g>
</g>
<g>
</g>
<g>
</g>
<g>
</g>
<g>
</g>
<g>
</g>
<g>
</g>
<g>
</g>
<g>
</g>
<g>
</g>
<g>
</g>
<g>
</g>
<g>
</g>
</svg>
